<svg id="Слой_1" data-name="Слой 1" xmlns="http://www.w3.org/2000/svg" xmlns:xlink="http://www.w3.org/1999/xlink" viewBox="0 0 1984 1347.1"><defs><linearGradient id="linear-gradient" x1="1148.9" y1="1269.29" x2="461.66" y2="1446.01" gradientUnits="userSpaceOnUse"><stop offset="0.01" stop-color="#b0bd24"/><stop offset="1" stop-color="#467550"/></linearGradient><linearGradient id="linear-gradient-2" x1="1616.45" y1="957.25" x2="1251.23" y2="1577.73" gradientUnits="userSpaceOnUse"><stop offset="0" stop-color="#9e9a34"/><stop offset="1" stop-color="#3d6a6e"/></linearGradient><linearGradient id="linear-gradient-3" x1="2456.59" y1="1622.39" x2="1791.95" y2="1949.2" xlink:href="#linear-gradient"/><linearGradient id="linear-gradient-4" x1="3474.11" y1="108.9" x2="3698.35" y2="108.9" gradientTransform="matrix(0.84, 0.3, -0.23, 0.66, -1552.03, 31.48)" gradientUnits="userSpaceOnUse"><stop offset="0" stop-color="#3076a1"/><stop offset="1" stop-color="#639c38"/></linearGradient><linearGradient id="linear-gradient-5" x1="3555.98" y1="165.74" x2="3911.36" y2="165.74" xlink:href="#linear-gradient-4"/><linearGradient id="linear-gradient-6" x1="3373.2" y1="169.35" x2="3600.79" y2="169.35" xlink:href="#linear-gradient-4"/><linearGradient id="linear-gradient-7" x1="1883.3" y1="2731.57" x2="1922.68" y2="2506.27" gradientTransform="matrix(0.87, 0.06, 0.06, 0.72, -323.74, -668.29)" xlink:href="#linear-gradient-4"/><linearGradient id="linear-gradient-8" x1="3402.01" y1="430.54" x2="3626.25" y2="430.54" xlink:href="#linear-gradient-4"/><linearGradient id="linear-gradient-9" x1="3483.88" y1="487.38" x2="3839.26" y2="487.38" xlink:href="#linear-gradient-4"/><linearGradient id="linear-gradient-10" x1="3301.1" y1="491" x2="3528.69" y2="491" xlink:href="#linear-gradient-4"/><linearGradient id="linear-gradient-11" x1="1707.91" y1="3010.67" x2="1747.3" y2="2785.37" gradientTransform="matrix(0.87, 0.06, 0.06, 0.72, -323.74, -668.29)" xlink:href="#linear-gradient-4"/><linearGradient id="linear-gradient-12" x1="342.63" y1="1740.18" x2="1796.9" y2="1372.23" gradientTransform="translate(6.56 -6.7) rotate(-0.1)" xlink:href="#linear-gradient-4"/><linearGradient id="linear-gradient-13" x1="-9270.07" y1="1598.95" x2="-9240.97" y2="1598.95" gradientTransform="matrix(-0.97, -0.23, -0.23, 0.97, -6906.69, -2774.3)" gradientUnits="userSpaceOnUse"><stop offset="0" stop-color="#eb4747"/><stop offset="1" stop-color="#eb7947"/></linearGradient><linearGradient id="linear-gradient-14" x1="-2880.84" y1="1050.75" x2="-2912.58" y2="1130.52" gradientTransform="matrix(-1, 0, 0, 1, -982.33, -4.99)" gradientUnits="userSpaceOnUse"><stop offset="0" stop-color="#face87"/><stop offset="1" stop-color="#faba52"/></linearGradient><linearGradient id="linear-gradient-15" x1="903.57" y1="526.94" x2="1107.42" y2="526.94" gradientTransform="translate(6.56 -6.7) rotate(-0.1)" gradientUnits="userSpaceOnUse"><stop offset="0" stop-color="#4f8d62"/><stop offset="1" stop-color="#639c38"/></linearGradient></defs><title>1354</title><path d="M2509.86,1226.67l-1984-104.51v131.28S1681.32,1288,2509.86,1226.67Z" transform="translate(-525.86 -399.47)" fill="url(#linear-gradient)"/><path d="M2206.94,1441.93H525.86V1322.19c18.29-30,58.87-52.12,142.13-45.61,77.2,6.06,114.65-4.7,137.68-23.13,42.58-34,35.93-94.26,140.27-123.2,129.17-35.89,94.7,55.93,305,116.16,9.44,2.69,18.33,5,26.79,7,68.94,16.43,107.51,11.15,134.26,0,43.31-18.09,55.68-51.48,116-32.85,33.88,10.46,56.71,21.66,73.33,32.85,67.91,45.47,31.88,90.25,221.24,83.36C2058.16,1328.21,2163.28,1379.2,2206.94,1441.93Z" transform="translate(-525.86 -399.47)" fill="url(#linear-gradient-2)"/><path d="M1438.82,1730.48s37.94-32,84.19-31.62,73.91,31.62,73.91,31.62Z" transform="translate(-525.86 -399.47)" fill="#668b43"/><path d="M2459.19,1746.57H2067s81.91-110.13,265.75-187A254.65,254.65,0,0,1,2459.19,1746.57Z" transform="translate(-525.86 -399.47)" fill="url(#linear-gradient-3)"/><path d="M1415,1346s28.63-12.59,36.75-40,13.32-65.17,35.51-74.89,68.82-35.68,70.18-68.16-68.83-71-52.66-79.11,45.32-29.63,16.64-47.21-43.92-20.67-51.51-44.46-35.27-36-41.37.22-23.24,44.47-19.51,74.67,21.08,58.59-27.33,65.32-30.8,39.45-20,63.3,13.54,117.92,16.76,134.27S1395.2,1357,1415,1346Z" transform="translate(-525.86 -399.47)" fill="url(#linear-gradient-4)"/><path d="M1402.79,1362.42s65.73-24.81,86.22-20.35,58.5,15.28,73.5-1.86,27.11-74.94,75.26-68.48,65.91-5,63.13-33.81,75.25-72.37,61.18-88.19-120.41,13.31-152,24.37-62.22-14.19-79.67,16.49-75.82,56.91-95.24,51.64-35.08-8-39.84,21.13-24.38,47-29.55,65.07S1353.74,1359.62,1402.79,1362.42Z" transform="translate(-525.86 -399.47)" fill="url(#linear-gradient-5)"/><path d="M1354.05,1026.91c-2.33-17.8-33-26.05-37.82-3.72s6.43,51.88-35.67,77.85,22.25,56.66,38,87.83,13,65.41,26.12,92.44,10.06,79.57,32.82,67.58,15.4-40.6,28.52-72,57-38.74,27.54-72.32-64.09-52.9-35.56-95.2C1410.62,1090.74,1361.31,1082.28,1354.05,1026.91Z" transform="translate(-525.86 -399.47)" fill="url(#linear-gradient-6)"/><path d="M1362.82,1344.56s22.73-21.27,11.11-67-33.59-47.06,35.9-54.59,42-118,96.65-111.61,149.77-123.26,181.73-91.21-44.43,85.17-24.47,116.21,14,59.52-50.52,61.51,3,120.23-83,118.74S1430.86,1423.42,1362.82,1344.56Z" transform="translate(-525.86 -399.47)" fill="url(#linear-gradient-7)"/><path d="M1279.76,1535.59s28.63-12.59,36.75-40,13.32-65.17,35.51-74.89,68.81-35.68,70.18-68.16-68.83-71-52.66-79.1,45.32-29.64,16.64-47.22-43.92-20.66-51.51-44.46-35.27-36-41.37.22-23.24,44.48-19.52,74.67,21.09,58.59-27.32,65.33-30.8,39.45-20,63.29,13.53,117.92,16.76,134.28S1260,1546.6,1279.76,1535.59Z" transform="translate(-525.86 -399.47)" fill="url(#linear-gradient-8)"/><path d="M1267.55,1552s65.74-24.82,86.22-20.36,58.5,15.28,73.51-1.86,27.11-74.94,75.26-68.48,65.9-5,63.13-33.81,75.25-72.36,61.18-88.19-120.41,13.31-152,24.37-62.22-14.19-79.68,16.49-75.81,56.91-95.23,51.65-35.09-8-39.84,21.13-24.38,47-29.55,65.06S1218.51,1549.2,1267.55,1552Z" transform="translate(-525.86 -399.47)" fill="url(#linear-gradient-9)"/><path d="M1218.82,1216.49c-2.34-17.8-33-26-37.82-3.72s6.43,51.88-35.67,77.86,22.25,56.66,38,87.83,13,65.4,26.12,92.43,10.06,79.57,32.82,67.59,15.39-40.6,28.51-72,57-38.74,27.54-72.32-64.08-52.9-35.56-95.19C1275.39,1280.32,1226.08,1271.87,1218.82,1216.49Z" transform="translate(-525.86 -399.47)" fill="url(#linear-gradient-10)"/><path d="M1227.59,1534.14s22.73-21.27,11.11-67-33.59-47.05,35.9-54.58,42-118.06,96.65-111.62S1521,1177.71,1553,1209.75s-44.43,85.17-24.48,116.22,14,59.51-50.51,61.5,3,120.23-83,118.74S1295.62,1613,1227.59,1534.14Z" transform="translate(-525.86 -399.47)" fill="url(#linear-gradient-11)"/><path d="M1710.79,1321.49c-66,59.86-207.47,60.1-104.48,132.06s127.51,140.87,60.23,162.12h0c-201-38.41-609.87-42.59-735.76-24.72C732.43,1619.1,689,1477,852,1393.42c80.58-41.31,514.38-112.72,836.23-132.71h.09C1691.42,1260.77,1775.6,1262.72,1710.79,1321.49Z" transform="translate(-525.86 -399.47)" fill="url(#linear-gradient-12)"/><path d="M1801.26,1270.81c6.86,1.3,33.31,4,45.52-28.6a17.59,17.59,0,0,1-18.17,3.07c-7.8-2.9-19.37,1.81-25.26,11.38,1.89-20.72-2-34.93-2.75-53.83-.12-2.87-.13-5.47-.08-7.87,4.7-.87,33.26-7.61,31.49-44.46a17.59,17.59,0,0,1-15.48,10c-9.26.46-19.09,11.44-19,24.31a44.13,44.13,0,0,0-2.67,15.64c-.13,9.16,2.23,18.56,3.66,28.9a38.41,38.41,0,0,0-5-8.13c-11.83-14.56-24.74-16.34-27.17-20.08,0,0-4.56,16.61,13.86,27.78,11.29,6.83,16.76,13.32,19.33,17.34a71.82,71.82,0,0,1-5,23.79c-11.39,29.1,4.33,59.58,4.33,59.58l10.06-6.22s-15.28-17.61-8.29-49.08C1800.89,1273.09,1801,1272,1801.26,1270.81Z" transform="translate(-525.86 -399.47)" fill="#add14d"/><path d="M1719.73,1344.68s75.45-84,166.5-.28Z" transform="translate(-525.86 -399.47)" fill="#877373"/><path d="M1881.13,1359.46c6.85,1.3,33.31,4,45.52-28.6a17.59,17.59,0,0,1-18.17,3.07c-7.8-2.9-19.37,1.81-25.27,11.38,1.89-20.72-2-34.93-2.74-53.83-.12-2.87-.13-5.47-.08-7.87,4.7-.87,33.25-7.61,31.48-44.46a17.57,17.57,0,0,1-15.47,10c-9.26.46-19.09,11.44-19,24.3a44.46,44.46,0,0,0-2.67,15.65c-.12,9.16,2.23,18.56,3.67,28.9a39.25,39.25,0,0,0-5-8.13c-11.83-14.56-24.74-16.34-27.17-20.08,0,0-4.56,16.61,13.86,27.78,11.29,6.83,16.75,13.32,19.32,17.34a71.79,71.79,0,0,1-5,23.79c-11.39,29.1,4.33,59.58,4.33,59.58l10.06-6.22s-15.29-17.61-8.3-49.08C1880.76,1361.74,1880.89,1360.66,1881.13,1359.46Z" transform="translate(-525.86 -399.47)" fill="#add14d"/><path d="M1795.86,1428.76s75.46-84,166.51-.28Z" transform="translate(-525.86 -399.47)" fill="#877373"/><path d="M2026.73,1559.07c6.85,1.31,33.31,4,45.51-28.6a17.56,17.56,0,0,1-18.16,3.07c-7.8-2.9-19.37,1.81-25.27,11.39,1.89-20.72-2-34.94-2.74-53.84-.12-2.87-.13-5.47-.08-7.87,4.7-.86,33.25-7.61,31.48-44.45a17.57,17.57,0,0,1-15.47,10c-9.26.47-19.09,11.45-19,24.31a44.37,44.37,0,0,0-2.67,15.65c-.12,9.16,2.23,18.55,3.67,28.89a39.46,39.46,0,0,0-5-8.12c-11.83-14.56-24.74-16.34-27.18-20.08,0,0-4.55,16.61,13.87,27.77,11.29,6.84,16.75,13.33,19.32,17.35a71.73,71.73,0,0,1-5,23.78c-11.4,29.1,4.33,59.58,4.33,59.58l10.06-6.21s-15.29-17.61-8.3-49.09C2026.36,1561.35,2026.49,1560.27,2026.73,1559.07Z" transform="translate(-525.86 -399.47)" fill="#add14d"/><path d="M1941.46,1628.37s75.46-84,166.5-.28Z" transform="translate(-525.86 -399.47)" fill="#877373"/><path d="M2228.3,1487.63c6.85,1.3,33.31,4,45.51-28.6a17.61,17.61,0,0,1-18.17,3.07c-7.8-2.91-19.36,1.81-25.26,11.38,1.89-20.72-2-34.94-2.75-53.84-.12-2.86-.13-5.47-.08-7.87,4.7-.86,33.26-7.61,31.49-44.45a17.61,17.61,0,0,1-15.48,10c-9.26.46-19.09,11.44-19,24.3a44.23,44.23,0,0,0-2.67,15.65c-.13,9.16,2.23,18.55,3.66,28.89a38.61,38.61,0,0,0-5-8.12c-11.83-14.56-24.74-16.34-27.17-20.08,0,0-4.56,16.61,13.86,27.77,11.29,6.84,16.76,13.33,19.33,17.35a71.87,71.87,0,0,1-5,23.79c-11.39,29.09,4.34,59.58,4.34,59.58l10.05-6.22s-15.28-17.61-8.29-49.08C2227.92,1489.9,2228.06,1488.83,2228.3,1487.63Z" transform="translate(-525.86 -399.47)" fill="#add14d"/><path d="M2143,1556.93s75.45-84,166.5-.29Z" transform="translate(-525.86 -399.47)" fill="#877373"/><path d="M1515.76,842s19.06-7.95,22-9.07,11.53.87,21.18,4,21.28,11.71,21.75,13.39,1.72,3.18.23,7.41a17,17,0,0,1-5.08,7s.62,6.09-4,9.16a8.49,8.49,0,0,1-5.11,8.58s-.3,5.42-4.73,7c0,0-8.6-2-12-1.79s-21-5.16-37.09-12.89C1512.86,874.78,1494.75,867,1515.76,842Z" transform="translate(-525.86 -399.47)" fill="#eea886"/><path d="M1542.44,854.18s-7.25,7.42-10.34,8.48,8,21.61,8,21.61S1551.22,863.24,1542.44,854.18Z" transform="translate(-525.86 -399.47)" fill="#cf8c6c"/><path d="M1509,842.44s9,.77,14.85-.65-6.44,27.06-6.44,27.06-11.31-11.65-19.8-13.62S1509,842.44,1509,842.44Z" transform="translate(-525.86 -399.47)" fill="#eea886"/><rect x="1201.82" y="1060.84" width="603.94" height="12.32" transform="translate(-364.52 1931.52) rotate(-78.63)" fill="#8a664d"/><path d="M1386,1325.82l-23.85,118.63c13.88,42.3,55,54.52,55,54.52s42.67,4.62,71.82-29l23.84-118.64Z" transform="translate(-525.86 -399.47)" fill="#4a3f3f"/><path d="M1386.84,1464.27s17.24,19.18,34.72,23.18,29.71,9.11,29.86,20.13-50.25,18.38-70.26,7.3c-29.87-16.54-32.89-11.53-36.22-19.82s3.51-30.45,3.71-33.11C1348.89,1458.69,1386.84,1464.27,1386.84,1464.27Z" transform="translate(-525.86 -399.47)" fill="#244057"/><path d="M1211.27,1469.58s12.69,18.69,29.63,23c16.71,4.23,27.54,12.31,28.38,23s-39.33,24.82-67.59,6c-18.57-12.33-25.49-11.62-29.24-19.47s1.3-29.8,1.53-32.44C1174.25,1466.54,1211.27,1469.58,1211.27,1469.58Z" transform="translate(-525.86 -399.47)" fill="#244057"/><path d="M1348.48,916.3s17.73,126.73,25.19,173.91c8.73,55.16,10.31,85.57,12.76,114.13,3.09,35.91-3.68,240.24-1.54,250.74s-33.94-5.36-33.94-5.36-31.86-223.84-40.94-262.08c-8.46-35.61-39.88-188.92-47.53-179.18s-16.86,179-22.48,207.1-29.26,244.76-29.26,244.76-24,5.47-34.43-3.32c0,0-13.39-183.83-9.87-236.51,1.35-20.07-23.93-240.64,7.85-329.5C1191.08,844,1348.48,916.3,1348.48,916.3Z" transform="translate(-525.86 -399.47)" fill="#eea886"/><path d="M1348.48,916.3s17.73,126.73,25.19,173.91c8.73,55.16,10.31,85.57,12.76,114.13,3.09,35.91,2.14,172.64,2.21,183.35.09,11.89-51.84,5.84-51.84,5.84s-17.71-167.65-26.79-205.89c-8.46-35.61-39.88-188.92-47.53-179.18s-16.86,179-22.48,207.1-18,190-18,190-45.06,6.39-55.48-2.4c0,0-3.62-130-.1-182.7,1.35-20.07-23.93-240.64,7.85-329.5C1191.08,844,1348.48,916.3,1348.48,916.3Z" transform="translate(-525.86 -399.47)" fill="#244057"/><path d="M1351,1449.72s24.06,9.13,33.7,2.64l3,12.76s-7.74,4.51-21.07,2.85-17.92-6-17.92-6Z" transform="translate(-525.86 -399.47)" fill="#81807e"/><path d="M1176.14,1454.68s27.66,10.22,35,2.12l1.27,14.31s-2.73,4.44-13.54,3.92-24.87-5.32-24.87-5.32Z" transform="translate(-525.86 -399.47)" fill="#81807e"/><path d="M1519.78,840.33l-4.51,37.48c-117.5-57.45-132.91-84.57-137.25-90.09-3-3.8-16-24.57-22.4-40-.54-1.29-1-2.53-1.45-3.73l-5.66-17.66a0,0,0,0,0,0,0c-2.54,36-1.49,90.74-1.32,165l2.93,36.47C1310.2,951.66,1163,943.31,1163,943.31l3.31-88s2.75-30.9,2.86-57.66c0-3.06,0-6.07-.07-9,0,0-.12-4.45-.61-11.25h0c-1.06-14.79-3.87-40.65-11-55.87-10.19-21.58-43.92-33.14-45.86-33.79l-.08,0s-.24-1.47-.62-4c0-.33-.08-.5-.08-.5-1.76-11.84-6-44.12-3.26-61.13,5.37-21.08,18.2-25.89,21.79-27.92,37.4-21,82.55-36.83,82.55-36.83,11.51.65,45.86,3.81,56.91,4.84,0,0,68.1,25.92,88.08,47.52l59.68,137.8Z" transform="translate(-525.86 -399.47)" fill="#ffbf55"/><path d="M1278,577.85S1255,590.43,1211.5,569c0,0,3.11-43.37-4.38-72.14S1265,537.26,1265,537.26c-.73.48-1,3.31-.75,7.29.08,1.3.21,2.72.39,4.22.23,1.88.55,3.89,1,5.93.11.56.22,1.12.35,1.69C1268.07,566,1272,576,1278,577.85Z" transform="translate(-525.86 -399.47)" fill="#eea886"/><path d="M1248.14,687.29s-45.33,27.63-55.2,31.56c-7.09,2.83-17.06-7.89-26.24-33.34,0,0-24.76-35.36-55.94-2.25,0,0,11.91,78.41,47,96.25,11.6,5.89,112-64.51,112-64.51S1257.71,697.91,1248.14,687.29Z" transform="translate(-525.86 -399.47)" fill="#ffbf55"/><path d="M1212.13,551.06s41.73,17.31,53.63,4.25l3.8,7,13.71,19s-58.68,16.13-73.28-2.58Z" transform="translate(-525.86 -399.47)" fill="#ffbf55"/><path d="M1355.62,747.77c-.54-1.29-1-2.53-1.45-3.73l-5.66-17.66a0,0,0,0,0,0,0v0s-.77-9.76-2.27-22.32h0c-1.77-14.69-4.53-33.22-8.24-44.48,0,0,6.15,8,11.2,26.24q1.05,3.77,2,8.11C1354.13,707.36,1356.23,725.11,1355.62,747.77Z" transform="translate(-525.86 -399.47)" fill="#ab8039"/><path d="M1242.92,733.31c-32.65,38.35-73.79,64.37-73.79,64.37,0-3.06,0-6.07-.07-9,0,0-.12-4.45-.61-11.25l.18-.08c18.48-7.25,53.91-30.66,57.19-32.84C1225.94,744.46,1242.88,733.32,1242.92,733.31Z" transform="translate(-525.86 -399.47)" fill="#ab8039"/><path d="M1265.63,554.7c-29.48,3.57-42.59-25.05-42.59-25.05,19.65,24.07,41.44,18.78,42,18.65C1265.22,550.18,1265.23,552.66,1265.63,554.7Z" transform="translate(-525.86 -399.47)" fill="#a77860"/><polygon points="381.67 71.55 388.53 61.43 925.36 365.33 918.5 375.45 381.67 71.55" fill="#8a664d"/><polygon points="388.53 61.43 337.49 39.91 334.01 46.06 383.45 72.56 388.53 61.43" fill="#4a3f3f"/><polygon points="309.16 25.7 369.18 55.24 341.27 146.42 252.7 102.83 309.16 25.7" fill="#4a3f3f"/><path d="M1307.19,677.05s-.87,4.37-2.18,6.09c0,0-2.62,3-4.36,5.18a18.52,18.52,0,0,0-1.27,1.77c-1.07,1.82-2.89,6.13-6.7,9.78S1268.43,715,1268.43,715l-9.35-9.29-10-7.44s8.43-31.15,11.58-35a11.91,11.91,0,0,1,1-1c3-3,6.44-3.92,8.18-5.3.65-.5,7.37-5.06,9.7-4.38,3.24.94,5.1,2.9,5.78,5.11,0,0,6.26,2.11,8.61,5.89,0,0,5.83,1.76,7.43,7.29C1301.32,670.91,1307,673.37,1307.19,677.05Z" transform="translate(-525.86 -399.47)" fill="#eea886"/><rect x="1581.79" y="1062.65" width="136.47" height="234.01" transform="translate(-527.86 -396.67) rotate(-0.1)" fill="#cfc147"/><path d="M1718.12,1098.81s4.28,47.26,7.47,67.46,2.32,125.7.22,130.26l-154.56.26s-6.45-81.32-.19-106.73,10.6-87.46,10.6-87.46Z" transform="translate(-525.86 -399.47)" fill="#cfc147"/><path d="M1595.72,1160.41s-9.93,34.71-9.9,48.38,5.11,69.39,5.11,69.39l115.93-.19s-1.67-49.42-.12-66.77-8-51-8-51Z" transform="translate(-525.86 -399.47)" fill="#639c38"/><path d="M1578.2,849.62s-24.4-7.29-26.06-3.51,0,6.19,0,6.19l-11.41,1.55s-7,5.29.83,11.34c0,0-7,4.26,1.21,9.2,0,0-3.38,4.88,0,7.84s19.12,7.23,19.12,7.23,4.71-.24,5.2-6.68a9.4,9.4,0,0,0,5.21-8.61s4.71-2.44,4.41-9.06c0,0,8.31-6.51,3.9-14.58C1580.67,850.53,1579.23,849.92,1578.2,849.62Z" transform="translate(-525.86 -399.47)" fill="#db9c7c"/><path d="M1539,833.45s12.62,12.09,16.61,21.72c.91,2.18,1.38,4.45-.3,6.11s-6.22,1.33-12-3.63-15.41-8.74-15.41-8.74S1523.53,842.09,1539,833.45Z" transform="translate(-525.86 -399.47)" fill="#eea886"/><path d="M1838.15,1470.33S1826,1484,1813.6,1486.84s-21,6.53-21.11,14.34,35.65,12.9,49.8,5c21.13-11.79,23.29-8.25,25.62-14.13s-2.85-21.59-2.7-23.46C1865.39,1466.28,1838.15,1470.33,1838.15,1470.33Z" transform="translate(-525.86 -399.47)" fill="#292c47"/><path d="M1962.58,1473.67s-8.95,13.28-20.95,16.36c-11.82,3-19.48,8.79-20.05,16.38s27.93,17.49,47.91,4.12c13.14-8.79,18-8.3,20.68-13.87s-1.42-21.18-1.16-23C1989.33,1471.44,1962.58,1473.67,1962.58,1473.67Z" transform="translate(-525.86 -399.47)" fill="#292c47"/><path d="M1863.55,1459.93s-17,6.53-23.88,2l-2.09,9s5.49,3.17,14.94,2,12.69-4.31,12.69-4.31Z" transform="translate(-525.86 -399.47)" fill="#202338"/><path d="M1987.43,1463s-19.57,7.31-24.78,1.58l-.86,10.15s1.94,3.14,9.6,2.74,17.62-3.82,17.62-3.82Z" transform="translate(-525.86 -399.47)" fill="#202338"/><path d="M1873.67,1081.62s-21.92,90.14-27.09,123.59c-6,39.12-7.1,60.67-8.77,80.91-2.1,25.46,3.19,170.25,1.7,177.69s24-3.88,24-3.88,22-158.7,28.38-185.82c5.9-25.26,27.81-134,33.25-127.1s12.37,126.81,16.43,146.72,21.32,173.38,21.32,173.38,17,3.81,24.39-2.44c0,0,9-130.31,6.43-167.63-1-14.22,16.37-170.59-6.36-233.49C1975.38,1030.31,1873.67,1081.62,1873.67,1081.62Z" transform="translate(-525.86 -399.47)" fill="#eea886"/><path d="M1871.33,1062.36s-19.58,109.4-24.75,142.85c-6,39.12-7.1,60.67-8.77,80.91-2.1,25.46-7.34,169.58-7.36,177.18,0,8.42,39.76,3,39.76,3s15.37-165,21.72-192.16c5.9-25.26,27.81-134,33.25-127.1s12.37,126.81,16.43,146.72,13,179,13,179,32.1-.16,39.46-6.41c0,0,2.26-132-.36-169.28-1-14.22,16.37-170.59-6.36-233.49C1975.38,1030.31,1871.33,1062.36,1871.33,1062.36Z" transform="translate(-525.86 -399.47)" fill="#292c47"/><path d="M1764.06,905.47s-11.45-11.92-12.88-13.61-7.37-3.36-14.36-4.7-17,0-17.89.86-2.13,1.37-2.65,4.47a11.94,11.94,0,0,0,.75,6s-2.44,3.53-.61,7a6.34,6.34,0,0,0,.58,7s-2,3.4.2,5.85c0,0,5.33,2,8,3,2.26.77,14.75,2.66,27.25,3.36C1752.42,924.7,1768.52,927.89,1764.06,905.47Z" transform="translate(-525.86 -399.47)" fill="#eea886"/><path d="M1747.56,926.28s50.82,18.53,60,21.39c7,2.2,16,8.69,32.31-1.18,7.59-4.59,17.65-13.93,27-23.58h0c2.16-2.23,4.27-4.47,6.31-6.67h0c10.61-11.46,19.13-21.85,20.09-23.5,1.94-3.35,40.29-31.1,13.57-49.69-6-4.17-29.08-14.19-42.18.05-11.51,12.52-16.79,36-19.57,41.3-3.28,6.27-17.55,32.84-17.55,32.84-.81,2-20.14-3.79-22.77-4.58-7.66-2.29-45.92-14.1-45.92-14.1Z" transform="translate(-525.86 -399.47)" fill="#538742"/><path d="M1947.74,785.81l0,0a123.6,123.6,0,0,1-16.77,21.3c-21,21-63.35,16.4-56.11-47.54,1.37-12.11,4.08-21.74,7.49-29.4,12.14-27.28,33.06-29.49,33.06-29.49,15.13,1,41,8,47.33,28.62C1967.23,744,1959.89,766.48,1947.74,785.81Z" transform="translate(-525.86 -399.47)" fill="#eea987"/><path d="M1947.74,785.81l0,0s-2.24.32-8.11-16.41c-1.17-3.36-2.65-1.25-3.16-2.73l-11.84-6.38s14.83-19.06-.56-26.75c-15.69-7.84-41.72-3.37-41.72-3.37,12.14-27.28,33.06-29.49,33.06-29.49,15.13,1,41,8,47.33,28.62C1967.23,744,1959.89,766.48,1947.74,785.81Z" transform="translate(-525.86 -399.47)" fill="#665249"/><path d="M1934,756.68c.92-4.31,9.41-8,13,1.22s-8.44,19.06-11.63,17S1932.43,763.8,1934,756.68Z" transform="translate(-525.86 -399.47)" fill="#eea987"/><path d="M1961.55,760.79s-36.58-32.58-84.41-28.45c0,0,9.94-58,61.79-41.43C1987.66,706.42,1964.07,754.42,1961.55,760.79Z" transform="translate(-525.86 -399.47)" fill="#538742"/><path d="M1937.41,745.08s-40.6,2.24-65.33-6.2,6.52-12.51,6.52-12.51S1900.59,722.33,1937.41,745.08Z" transform="translate(-525.86 -399.47)" fill="#538742"/><path d="M1907.24,828s-30.6,6.34-34.57,9.86c-4.3,3.76-12.85,41.64-13.28,51.85s2.26,52.3,6.6,68.18,4.11,91.73,1.43,113.75c0,0,63.38,15.1,129.63,6.36,0,0-10.49-79.42-7.88-101.19,3.35-27.9,14.28-88.72,14.28-88.72s-.89-42.16-6.8-47.14-51.63-13-51.63-13Z" transform="translate(-525.86 -399.47)" fill="#538742"/><path d="M1900.4,835.05s9.4,7,40.79-6.85c0,0-4.59-15.59,1.54-35.72s-39,19.53-39,19.53c.51.35.61,2.36.32,5.17,0,.18,0,.36-.06.55a54.36,54.36,0,0,1-1.24,6.86c-.08.3-.15.6-.23.91C1900.73,832.22,1900.39,829.18,1900.4,835.05Z" transform="translate(-525.86 -399.47)" fill="#eea886"/><path d="M1902.71,824.59h0c22.51,2.85,34.75-21.42,35.11-22.14-15.37,22.49-33.86,15.28-33.86,15.28h0A54.36,54.36,0,0,1,1902.71,824.59Z" transform="translate(-525.86 -399.47)" fill="#a77860"/><path d="M1900.52,829.41s-7.18,10.72,2.85,12.53,30.51-.45,41.65-14.05C1945,827.89,1914.62,825.3,1900.52,829.41Z" transform="translate(-525.86 -399.47)" fill="#eea886"/><path d="M1861.5,928.28s-2.25-29.56-2.16-34.53a220.36,220.36,0,0,0-5.06,41.39Z" transform="translate(-525.86 -399.47)" fill="#2a3e4f"/><path d="M1750.64,891.69s-12,3.18-17.73,7.79c-1.31,1-2.38,2.29-1.91,3.89s3.41,3,8.66,1.84,12.55-.15,12.55-.15S1757.27,902.33,1750.64,891.69Z" transform="translate(-525.86 -399.47)" fill="#eea886"/><path d="M1834.39,1069.56c-.1-2.21-2-54.56,27.4-85.38,13.61-14.24,31.72-21.48,53.81-21.52s40.23,7.14,53.89,21.34c29.55,30.72,27.78,83.07,27.69,85.29l-.15,3.63-162.48.28ZM1964,989.26c-12.18-12.65-28.46-19-48.41-19s-36.2,6.48-48.32,19.16c-23,24-25.23,64-25.36,76.2l147.68-.25C1989.46,1053.17,1987.09,1013.24,1964,989.26Z" transform="translate(-525.86 -399.47)" fill="#face87"/><path d="M1809.22,1039.77s3.82.07,5.5-.72c0,0,3-1.67,5.13-2.73a17.43,17.43,0,0,1,1.72-.75c1.72-.57,5.67-1.31,9.42-3.85s17.09-17.61,17.09-17.61l-6.11-9.53-4.44-9.73s-27.66,1.45-31.42,3.41a8.62,8.62,0,0,0-1,.61c-3,2-4.45,4.7-5.93,5.91-.53.45-5.57,5.27-5.43,7.35a6.83,6.83,0,0,0,3.25,5.77s.64,5.63,3.38,8.29c0,0,.43,5.21,4.78,7.55C1805.12,1033.74,1806.15,1039,1809.22,1039.77Z" transform="translate(-525.86 -399.47)" fill="#eea886"/><path d="M1986.84,837c-7.61-1.18-30.77-1.76-38.61,32.35-3.57,15.53-6.74,33.18-7.13,39.5s-12.26,51.7-16.52,55c-5.41,4.24-33.66,13.19-36.29,14.39-9.07,4.12-52.44,15.3-52.44,15.3l3.25,33s95.29-23.16,105.64-28.76c6.82-3.7,16.79-10.17,25.43-28.31,9.51-20,30.79-62.7,31.08-66.76S2020.71,842.25,1986.84,837Z" transform="translate(-525.86 -399.47)" fill="#538742"/><path d="M1968.34,994.22s-21.73-27.84-58.37-23.78l0-7.61s35.45-4.94,61.55,23.36Z" transform="translate(-525.86 -399.47)" fill="#face87"/><path d="M1745.13,862.35s14.81.57,11.45,14.81-30,73.9-32.58,74.75c-1.93-1.91.91-67.2,4.27-81.43S1745.13,862.35,1745.13,862.35Z" transform="translate(-525.86 -399.47)" fill="url(#linear-gradient-13)"/><path d="M1745.13,862.35s-4.07-4.09-2.81-6.45,3.25,1.55,3.57-4.64-3.78-8.09,1.08-9.45,8.36-12.9,9.37-9.21-3.25,8.46-3.8,11.46,2.2,1.77.25,6.17S1745.13,862.35,1745.13,862.35Z" transform="translate(-525.86 -399.47)" fill="#959c4d"/><rect x="1743.21" y="873.01" width="7.41" height="0.41" transform="translate(2720.88 1724.64) rotate(-166.73)" fill="#cf433e"/><polygon points="1203.91 478.98 1211.12 480.68 1211.21 480.28 1204 478.58 1203.91 478.98" fill="#cf433e"/><polygon points="1213.02 491.67 1220.23 493.37 1220.33 492.97 1213.11 491.27 1213.02 491.67" fill="#cf433e"/><rect x="1730.55" y="898.82" width="7.41" height="0.41" transform="translate(2689.74 1772.93) rotate(-166.72)" fill="#cf433e"/><polygon points="1206.3 512.62 1213.52 514.32 1213.61 513.93 1206.39 512.23 1206.3 512.62" fill="#cf433e"/><path d="M1720.78,888.3s17.63,3.82,17.36,6.74a4.57,4.57,0,0,1-2.13,3.82l6.55,4.87s2.51,5.67-4.39,6.75c0,0,2.89,5-3.9,5.3,0,0,.42,4.18-2.7,4.85s-14.37-2.25-14.37-2.25-2.53-1.47-.64-5.63c0,0-2.88-3.4-.65-7.13,0,0-2-3,.46-7,0,0-2.93-7.13,2.56-10.63C1718.93,888,1720,888.14,1720.78,888.3Z" transform="translate(-525.86 -399.47)" fill="#db9c7c"/><path d="M1964.11,1041.29c32,0,33.22,30.26,33.22,30.26l-61.19.1S1932.09,1041.35,1964.11,1041.29Z" transform="translate(-525.86 -399.47)" fill="#9ccc9b"/><path d="M1929.82,1056.51c14.87-1.46,16.61,15.12,16.61,15.12l-32,.06S1915,1058,1929.82,1056.51Z" transform="translate(-525.86 -399.47)" fill="#ca595b"/><path d="M1913.81,1056.53c14.87-1.45,16.61,15.13,16.61,15.13l-32,0S1898.94,1058,1913.81,1056.53Z" transform="translate(-525.86 -399.47)" fill="#ec686b"/><path d="M1836.58,1044.94c-10.91-26.86,32.55-31.51,35.44-13.78s32.67,40.54,32.67,40.54l-52,10.39S1847.5,1071.8,1836.58,1044.94Z" transform="translate(-525.86 -399.47)" fill="#9a6fa0"/><path d="M1857.4,1019.83c17.14-.81,26.07,17.57,26.07,17.57s-25.47-11.5-27.18-5.92-5.39,21.73-5.39,21.73-4.34-24.94-5.51-21-14,10.5-14,10.5c-.88-15,13.94-21,13.94-21S1840.26,1020.65,1857.4,1019.83Z" transform="translate(-525.86 -399.47)" fill="#82c07e"/><path d="M1888.41,1160.21l57.38-.1c70.23-.12,58.83-100.27,58.83-100.27l-175.37.3S1818.18,1160.33,1888.41,1160.21Z" transform="translate(-525.86 -399.47)" fill="url(#linear-gradient-14)"/><path d="M1888.41,1160.21l57.38-.1c70.23-.12,58.83-100.27,58.83-100.27l-63.5.11S1946.76,1160.11,1888.41,1160.21Z" transform="translate(-525.86 -399.47)" fill="#f0b24e"/><path d="M1207.55,502.51l0,0A151.29,151.29,0,0,0,1224.89,531c22.53,28.8,74.94,29.43,75.58-49.74.12-15-1.78-27.16-4.8-37-10.79-35.12-36-40.92-36-40.92-18.63-1-51.22,3.67-62,27.94C1189.94,448.55,1195.57,477.1,1207.55,502.51Z" transform="translate(-525.86 -399.47)" fill="#eea987"/><path d="M1207.55,502.51l0,0s2.69.72,12.33-18.84c1.93-3.93,3.43-1.13,4.27-2.86l15.41-6s-15.3-25.48,4.64-32.59c20.32-7.25,51.45,2.07,51.45,2.07,2.19-63.48-36-40.92-36-40.92-18.63-1-51.22,3.67-62,27.94C1189.94,448.55,1195.57,477.1,1207.55,502.51Z" transform="translate(-525.86 -399.47)" fill="#665249"/><path d="M1227.29,469c-1.16-5.29-11.62-9.83-16,1.55s10.46,23.42,14.37,20.92S1229.2,477.75,1227.29,469Z" transform="translate(-525.86 -399.47)" fill="#eea987"/><path d="M1010.38,666l-40.61-69.75s21.17-8.13,28.14-10.53,23.67-26.57,41.77-38.17c0,0-69.11-11.42-77.27-14.9l7.21-43.47s55.63,17.91,86,15.38,57.6,6.56,55.65,29.61-63.11,81.94-75.9,94.68C1035.38,628.88,1019.35,644.72,1010.38,666Z" transform="translate(-525.86 -399.47)" fill="#ffbf55"/><path d="M1114.87,518.35a68.16,68.16,0,0,1-.73,10.13,71,71,0,0,1-7.09,22.09,78.62,78.62,0,0,1-7.29,11.64h0c-17.92,23.79-50,39.68-86.66,39.74-37.15.06-69.7-16.16-87.54-40.44a76,76,0,0,1-10-18.3,70.3,70.3,0,0,1-4.33-19.36c-.13-1.7-.19-3.42-.2-5.16a70.48,70.48,0,0,1,.5-8.38,68.69,68.69,0,0,1,2.45-11.7,73.43,73.43,0,0,1,6.92-15.86c16.34-28.13,51.34-47.58,91.92-47.64,39.68-.07,74.08,18.42,91,45.47a74.49,74.49,0,0,1,5.76,11.15,70.09,70.09,0,0,1,5,19.74A65.06,65.06,0,0,1,1114.87,518.35Z" transform="translate(-525.86 -399.47)" fill="url(#linear-gradient-15)"/><path d="M1109.53,491.73a64.78,64.78,0,0,1-18.71-1.16c-15.2-3.4-20.11-4.14-38.72-4.22s-28.43-2.78-39.21.06-16.64,4.68-31.84,5.75-25-4.45-41.17.07c-11.47,3.21-21.23,5.38-25.91,6.38a73.43,73.43,0,0,1,6.92-15.86c9.82-4.45,26.22-10.91,34.16-8.6,11.77,3.4,21.07-2.1,36.75-3.79s35.76-3.29,44.59-.07,32.34-.75,45.1,4.61c5.86,2.48,14.44,4.17,22.28,5.68A74.49,74.49,0,0,1,1109.53,491.73Z" transform="translate(-525.86 -399.47)" fill="#3c6b4a"/><path d="M1114.87,518.35a68.16,68.16,0,0,1-.73,10.13c-7.09-.23-14.31-.36-19.83-.18-15.19.52-26,3.47-33.31,3.49s-27-3.88-34.81-4.35-29.88.53-38.7.55l-32.35,0c-12.74,0-27.93,1-27.93,1s-8.66-2.76-16-5.22c-.13-1.7-.19-3.42-.2-5.16a70.48,70.48,0,0,1,.5-8.38c8,0,21.4.51,34.27.11,16.67-.52,26,.45,42.64-.08s34.79-4.95,50-.08,24,8.56,32.86,8.16c6.45-.29,28-6.12,43.24-6.95A65.06,65.06,0,0,1,1114.87,518.35Z" transform="translate(-525.86 -399.47)" fill="#3c6b4a"/><path d="M1107.05,550.57a78.62,78.62,0,0,1-7.29,11.64h0c-21,3.85-31.34,6.8-42.6,11.23s-32.56,6.44-35.88,6.44-42-1.39-42-1.39a128.38,128.38,0,0,0-21.58-7.32c-7.66-1.74-22-5.18-32.11-9.66a76,76,0,0,1-10-18.3c17.45,6.24,56.07,16.56,62.67,16.17,8.33-.52,29.4,1.9,47.55,1.87s29.88-2,39.18-4.48,5.41-8.52,23.51-6.9C1094.87,550.44,1101.36,550.61,1107.05,550.57Z" transform="translate(-525.86 -399.47)" fill="#3c6b4a"/><path d="M904,519.46c5.5,14.34,1.16,29.34-9.71,33.51s-24.13-4.07-29.64-18.4-1.15-29.34,9.72-33.51S898.46,505.13,904,519.46Z" transform="translate(-525.86 -399.47)" fill="#323657"/><path d="M972.66,1506.19c10.26,3.06,13.37,20.5,22.1,25.61s51.31,8.64,52.83-4.7-17.9-25.26-26.64-31.91-31-30.4-35-39.11c0,0-2.35,5.18-10.48,4.54-10.53-.84-13-3.25-13-3.25-1.67,10.5-3.19,17.65-4.22,21.66C954.68,1492.89,962.39,1503.13,972.66,1506.19Z" transform="translate(-525.86 -399.47)" fill="#1b384f"/><path d="M820.16,1509.74c10.27,3.06,13.38,20.49,22.1,25.61s51.32,8.63,52.83-4.71-17.9-25.26-26.63-31.91-31-30.39-35-39.11c0,0-2.34,5.19-10.47,4.54-10.54-.84-13-3.25-13-3.25-1.66,10.5-3.19,17.66-4.22,21.66C802.19,1496.43,809.9,1506.68,820.16,1509.74Z" transform="translate(-525.86 -399.47)" fill="#1b384f"/><path d="M851.38,840.66s-29,37.85-36.81,82.7S807.28,1116.79,807,1139s-5.05,73.35-4.36,121c.61,41.94-1.47,213-1.47,213l47.87-.83s22.86-176.67,25.4-194.2,10.88-82.6,11.9-89.81,55-202.37,54.93-234.7S921.38,787.81,851.38,840.66Z" transform="translate(-525.86 -399.47)" fill="#538742"/><path d="M996.45,856.92c1.87,10.3,35.63,189,38.2,212.06,2.88,25.72,8.15,56.72,7,67.39-2.54,24.74-4.67,49.06-4.67,49.06l-35.28,282.62-47.61-.83s-7-160.54-6.08-194.63,14.14-93.42,10.49-108.3-57.29-183.62-57.29-183.62S855.41,789.24,996.45,856.92Z" transform="translate(-525.86 -399.47)" fill="#538742"/><path d="M994.14,838.66c1.8,12.23,9.81,58.41,9.81,58.41-80.79,26.14-177-14-177-14,1.61-8.87,23.94-71.24,27.15-77.7s8-24.65,3.15-47.09c-1.29-5.94-5.36-18.7-12.42-35.31-3.1-7.28-5.32-12.58-8.6-20.59v0c-14-34.07-27.73-70.87-25.16-77.55,4.54-11.84,26.84-17.25,37.59-19.16s49.43-16.47,49.43-16.47l41.25-.07s48.8,7.85,53.51,12.34c9.49,9.07,17.56,57.15,17.56,57.15,11.87,33.31-3.55,69.51-6.15,78-4.9,16-8.17,36.54-9.36,47S993.22,832.41,994.14,838.66Z" transform="translate(-525.86 -399.47)" fill="#ffbf55"/><path d="M911.47,418c14.78-1.64,50.54,8.51,55.21,63.07s-8.47,82-20.55,87.92-45.7-3.42-60.79-29.73-33.75-87.56-12.54-104.8S911.47,418,911.47,418Z" transform="translate(-525.86 -399.47)" fill="#eea886"/><path d="M950.2,471.49s13,9.25,17.42,21.54c0,0,9.69-69-49.14-74.55-44.77-4.23-59.62,32.47-55.75,56s15.07,50.85,15.07,50.85S882,511.46,890,511.06,948.8,480.56,950.2,471.49Z" transform="translate(-525.86 -399.47)" fill="#323657"/><path d="M921.49,618.48c-25.26,0-31-26.44-31-26.44s5.45-35.77-8.74-59.58,57.41,38.24,57.41,38.24-.06,5.83.32,12.8c.39,7.44,1.51,14.33,3.46,18.71C942.93,602.21,946.75,618.44,921.49,618.48Z" transform="translate(-525.86 -399.47)" fill="#eea886"/><path d="M895.75,497.21c-2.71-2.62-15.33-6.93-15.58,9.16s18.06,27.92,19.65,16.63S900.3,501.61,895.75,497.21Z" transform="translate(-525.86 -399.47)" fill="#eea886"/><path d="M939.47,583.5c-.88-.25-1.84-.54-2.89-.89-23.53-7.88-34.82-25-34.82-25,21.54,14.9,37.5,13,37.5,13S939.09,576.53,939.47,583.5Z" transform="translate(-525.86 -399.47)" fill="#a77860"/><path d="M846.71,727.59s38.41-22,54.08-47.9l91-6.32,19.52,40.17s-14.1,63.31-7.37,183.53c3.28,58.57-177-14-177-14S854.81,795.11,846.71,727.59Z" transform="translate(-525.86 -399.47)" fill="#538742"/><path d="M900.79,679.69s-18.14-56.18-42.69-76.49c0,0,6.47-6.58,12.94-4.24,0,0,18.87,10.28,49.76,79.34S900.79,679.69,900.79,679.69Z" transform="translate(-525.86 -399.47)" fill="#538742"/><path d="M991.8,673.37S985,620.78,975.39,596l-7.71-1.81s11.64,60.22,10.47,80.16S991.8,673.37,991.8,673.37Z" transform="translate(-525.86 -399.47)" fill="#538742"/><path d="M870.57,503.9s47.31-20.26,97.6-16.51c0,0,8-85.43-72.75-68.32C895.42,419.07,838.33,430.5,870.57,503.9Z" transform="translate(-525.86 -399.47)" fill="#ededed"/><path d="M908.76,492.29s41.63-21.71,83.73-17.47-24.32,12.57-24.32,12.57S931.77,488.42,908.76,492.29Z" transform="translate(-525.86 -399.47)" fill="#ededed"/><path d="M1032,436.94a38.29,38.29,0,0,1,34.39-1.65c21.48,9.45,24.24,21.55,21.16,25.27S1031.2,448.44,1032,436.94Z" transform="translate(-525.86 -399.47)" fill="#eea886"/><path d="M806.61,885.43s4,2.47,7.82,2.05c6.63-.74,13.32-8.26,21-2.85s-3.58,33-8.45,36.57-17.51-.67-32.13-13.81S806.61,885.43,806.61,885.43Z" transform="translate(-525.86 -399.47)" fill="#eea886"/><path d="M832.59,883.16a296.24,296.24,0,0,1,29.08,8c13.27,4.44,27.82,12,28,14.8.17,3.18-14-2.57-27.44-6.13-12.39-3.29-10.52-.68-10.52-.68s-.49-.77,12.29,5.29c13.75,6.51,27.15,14.5,26.93,17.89-.11,1.64-1.07,2.23-6.47.64,2.9,1.54,2.86,2.51,2.3,3.71-2.93,6.19-24.69-.41-33.34-3,6.63,2.06,11.26,4.23,6.84,6.93-5.06,3.07-35.39-7.58-46.64-10.41C801.33,917.06,832.59,883.16,832.59,883.16Z" transform="translate(-525.86 -399.47)" fill="#eea886"/><path d="M863.18,613.8s-41-10.6-59.66,12.47c-24.28,30-29.43,39.72-36.51,55-6.69,14.47-28.79,52.82-31,56.79s-39.51,48.18-34.76,69,92,104.37,90.13,108.1,24.72-28.31,24.72-28.31-29.65-41.8-34.33-51c-7.6-15-27.22-34.48-18.09-47.45,10.72-15.23,44.82-67.24,51.26-74.42S885.06,632,863.18,613.8Z" transform="translate(-525.86 -399.47)" fill="#ffbf55"/></svg>