<svg width="333" height="124" viewBox="0 0 333 124" fill="none" xmlns="http://www.w3.org/2000/svg">
<path d="M0 18C0 8.05887 8.05887 0 18 0H333V106C333 115.941 324.941 124 315 124H0V18Z" fill="url(#paint0_linear)"/>
<path d="M193.333 97.6884C193.333 97.6884 185.31 104.011 191.156 111.856L193.437 97.6138L193.333 97.6884Z" fill="url(#paint1_linear)"/>
<path d="M191.324 111.856L193.512 97.6335C193.576 97.7075 200.113 105.036 191.324 111.856Z" fill="url(#paint2_linear)"/>
<path d="M194.665 96.6839C194.665 96.6839 197.164 106.437 207.49 103.231L194.665 96.6839Z" fill="url(#paint3_linear)"/>
<path d="M194.665 96.5944C194.665 96.5944 204.269 93.3435 207.49 103.126L194.665 96.5944Z" fill="url(#paint4_linear)"/>
<path d="M194.516 95.0882C194.516 95.0882 194.407 84.9921 204.746 84.9325L194.516 95.0882Z" fill="url(#paint5_linear)"/>
<path d="M204.828 84.9474L194.531 95.1925C194.531 95.1925 204.865 95.2987 204.828 84.9474Z" fill="url(#paint6_linear)"/>
<path d="M192.592 94.9093L186.055 82.0895C186.055 82.0895 182.556 91.6433 192.592 94.9093Z" fill="url(#paint7_linear)"/>
<path d="M186.095 82L192.657 94.9093C192.657 94.9093 196.196 85.7282 186.095 82Z" fill="url(#paint8_linear)"/>
<path d="M178.06 98.8242L192.257 96.5944C192.257 96.5944 187.223 104.941 178.06 98.8242Z" fill="url(#paint9_linear)"/>
<path d="M178 98.7495L192.309 96.5048C192.309 96.5048 184.897 90.3159 178 98.7495Z" fill="url(#paint10_linear)"/>
<path d="M219.12 102L217.86 99.12H221.982L219.75 94.08L216.24 102H213V99.12H214.278L218.58 89.4H220.92L226.5 102H219.12ZM231.798 102C230.058 102 228.57 101.388 227.334 100.164C226.11 98.928 225.498 97.44 225.498 95.7C225.498 93.96 226.11 92.478 227.334 91.254C228.57 90.018 230.058 89.4 231.798 89.4H238.098V92.28H231.798C230.85 92.28 230.04 92.616 229.368 93.288C228.708 93.948 228.378 94.752 228.378 95.7C228.378 96.66 228.708 97.47 229.368 98.13C230.028 98.79 230.838 99.12 231.798 99.12H235.218V97.14H233.418L232.158 94.26H238.098V102H231.798ZM246.526 102L242.062 97.14L243.322 94.26H246.652C246.928 94.26 247.162 94.164 247.354 93.972C247.546 93.78 247.642 93.546 247.642 93.27C247.642 92.994 247.546 92.76 247.354 92.568C247.162 92.376 246.928 92.28 246.652 92.28H241.702V102H238.822V89.4H246.652C247.72 89.4 248.632 89.778 249.388 90.534C250.144 91.29 250.522 92.202 250.522 93.27C250.522 94.338 250.144 95.25 249.388 96.006C248.632 96.762 247.72 97.14 246.652 97.14H246.004L250.522 102H246.526ZM251.25 102V89.4H254.13V102H251.25ZM262.774 102H260.434L254.854 89.4H258.094L261.604 97.32L265.114 89.4H268.354L262.774 102ZM270.097 102L268.837 99.12H272.959L270.727 94.08L267.217 102H263.977V99.12H265.255L269.557 89.4H271.897L277.477 102H270.097ZM281.62 92.28V102H278.74V92.28H274.33V89.4H286.03V92.28H281.62ZM294.72 95.7C294.72 94.764 294.384 93.96 293.712 93.288C293.04 92.616 292.236 92.28 291.3 92.28C290.364 92.28 289.56 92.616 288.888 93.288C288.216 93.96 287.88 94.764 287.88 95.7C287.88 96.648 288.216 97.458 288.888 98.13C289.548 98.79 290.352 99.12 291.3 99.12C292.248 99.12 293.052 98.79 293.712 98.13C294.384 97.458 294.72 96.648 294.72 95.7ZM297.6 95.7C297.6 97.44 296.982 98.928 295.746 100.164C294.522 101.388 293.04 102 291.3 102C289.56 102 288.072 101.388 286.836 100.164C285.612 98.928 285 97.44 285 95.7C285 93.96 285.612 92.478 286.836 91.254C288.072 90.018 289.56 89.4 291.3 89.4C293.04 89.4 294.522 90.018 295.746 91.254C296.982 92.478 297.6 93.96 297.6 95.7ZM306.028 102L301.564 97.14L302.824 94.26H306.154C306.43 94.26 306.664 94.164 306.856 93.972C307.048 93.78 307.144 93.546 307.144 93.27C307.144 92.994 307.048 92.76 306.856 92.568C306.664 92.376 306.43 92.28 306.154 92.28H301.204V102H298.324V89.4H306.154C307.222 89.4 308.134 89.778 308.89 90.534C309.646 91.29 310.024 92.202 310.024 93.27C310.024 94.338 309.646 95.25 308.89 96.006C308.134 96.762 307.222 97.14 306.154 97.14H305.506L310.024 102H306.028Z" fill="black"/>
<g clip-path="url(#clip0)">
<path d="M159 82.7044L1 74.4032V84.8308C1 84.8308 93.0175 87.5759 159 82.7044Z" fill="url(#paint11_linear)"/>
<path d="M134.876 99.8025H1V90.2916C2.45656 87.9087 5.68824 86.1517 12.3188 86.6688C18.4668 87.1501 21.4492 86.2954 23.2833 84.8315C26.6742 82.1309 26.1446 77.3445 34.454 75.0458C44.7407 72.195 41.9956 79.4883 58.7433 84.2724C59.495 84.486 60.203 84.6695 60.8767 84.8284C66.3669 86.1334 69.4385 85.714 71.5688 84.8284C75.0179 83.3915 76.003 80.7393 80.8067 82.2191C83.5048 83.0499 85.3229 83.9395 86.6465 84.8284C92.0547 88.4401 89.1853 91.9969 104.265 91.4497C123.028 90.7697 131.399 94.8199 134.876 99.8025Z" fill="url(#paint12_linear)"/>
<path d="M73.7055 122.722C73.7055 122.722 76.7269 120.18 80.4101 120.21C84.0933 120.241 86.2961 122.722 86.2961 122.722H73.7055Z" fill="#668B43"/>
<path d="M154.965 124H123.732C123.732 124 130.255 115.252 144.895 109.147C147.606 110.684 149.924 112.824 151.67 115.4C153.417 117.976 154.544 120.919 154.965 124Z" fill="url(#paint13_linear)"/>
<path d="M71.8085 92.1828C71.8085 92.1828 74.0885 91.1827 74.7352 89.0056C75.3818 86.8284 75.796 83.8291 77.5631 83.0571C79.3303 82.285 83.0437 80.223 83.152 77.6431C83.2603 75.0632 77.6706 72.0036 78.9584 71.3594C80.2461 70.7152 82.5675 69.0059 80.2835 67.6095C77.9995 66.2132 76.7859 65.9677 76.1814 64.0781C75.577 62.1884 73.3726 61.2186 72.8868 64.0956C72.401 66.9725 71.0361 67.6278 71.3331 70.0266C71.6301 72.4254 73.0118 74.6804 69.1566 75.2149C65.3014 75.7495 66.7038 78.3485 67.5639 80.2429C68.424 82.1373 68.6422 89.6092 68.8986 90.9079C69.155 92.2066 70.2317 93.0565 71.8085 92.1828Z" fill="url(#paint14_linear)"/>
<path d="M70.8362 93.487C70.8362 93.487 76.0707 91.5164 77.7025 91.8706C79.3342 92.2249 82.3612 93.0843 83.5558 91.7229C84.7504 90.3615 85.7148 85.7704 89.5493 86.2835C93.3838 86.7967 94.7982 85.8864 94.5768 83.598C94.3554 81.3096 100.569 77.8497 99.449 76.5931C98.3285 75.3365 89.8599 77.6503 87.3441 78.5288C84.8284 79.4073 82.3891 77.4017 80.9995 79.8386C79.6098 82.2755 74.9614 84.3589 73.4148 83.9404C71.8683 83.5218 70.6211 83.3049 70.2421 85.6187C69.863 87.9325 68.3005 89.3519 67.8888 90.7872C67.4771 92.2225 66.93 93.2646 70.8362 93.487Z" fill="url(#paint15_linear)"/>
<path d="M66.9546 66.8375C66.7691 65.4236 64.3266 64.7683 63.9428 66.542C63.5589 68.3157 64.4548 70.6628 61.1021 72.7256C57.7494 74.7884 62.874 77.2261 64.1283 79.702C65.3826 82.1778 65.1636 84.8975 66.2084 87.0445C67.2533 89.1915 67.0096 93.3647 68.8221 92.4123C70.6347 91.46 70.0485 89.1875 71.0934 86.6934C72.1382 84.1993 75.6327 83.6163 73.2866 80.949C70.9405 78.2817 68.1826 76.7472 70.4547 73.3873C71.4597 71.9075 67.5328 71.2355 66.9546 66.8375Z" fill="url(#paint16_linear)"/>
<path d="M67.6531 92.0684C67.6531 92.0684 69.4632 90.3789 68.5378 86.7466C67.6124 83.1143 65.8628 83.0086 71.3968 82.4105C76.9308 81.8124 74.7416 73.0378 79.0937 73.5453C83.4459 74.0529 91.021 63.7548 93.5662 66.3005C96.1114 68.8463 90.0279 73.0656 91.6175 75.5311C93.207 77.9966 92.7324 80.2587 87.5942 80.4168C82.456 80.5749 87.8331 89.9667 80.9843 89.8483C74.1355 89.73 73.0716 98.3322 67.6531 92.0684Z" fill="url(#paint17_linear)"/>
<path d="M61.0384 107.242C61.0384 107.242 63.3184 106.242 63.9651 104.065C64.6117 101.888 65.0258 98.8882 66.793 98.1162C68.5601 97.3441 72.2728 95.2821 72.3819 92.7023C72.491 90.1224 66.9005 87.0627 68.1882 86.4193C69.476 85.776 71.7974 84.065 69.5134 82.6687C67.2294 81.2723 66.0157 81.0276 65.4113 79.1372C64.8068 77.2468 62.6025 76.2777 62.1167 79.1547C61.6309 82.0316 60.2659 82.6877 60.5622 85.0857C60.8584 87.4837 62.2417 89.7395 58.3865 90.2749C54.5312 90.8102 55.9337 93.4084 56.7937 95.302C57.6538 97.1956 57.8712 104.668 58.1285 105.968C58.3857 107.267 59.4648 108.116 61.0384 107.242Z" fill="url(#paint18_linear)"/>
<path d="M60.0661 108.545C60.0661 108.545 65.3014 106.574 66.9324 106.928C68.5633 107.282 71.5911 108.142 72.7865 106.78C73.9818 105.419 74.9454 100.828 78.78 101.341C82.6145 101.854 84.028 100.944 83.8074 98.6555C83.5868 96.3671 89.8001 92.908 88.6796 91.6506C87.5591 90.3932 79.0905 92.7078 76.5748 93.5863C74.0591 94.4648 71.6198 92.4592 70.2293 94.8961C68.8389 97.333 64.192 99.4164 62.6455 98.9986C61.0989 98.5808 59.851 98.3632 59.4727 100.677C59.0945 102.991 57.5312 104.41 57.1195 105.845C56.7078 107.279 56.1607 108.323 60.0661 108.545Z" fill="url(#paint19_linear)"/>
<path d="M56.1853 81.8958C55.999 80.4819 53.5573 79.8306 53.1734 81.6003C52.7896 83.37 53.6855 85.7211 50.3328 87.7847C46.9801 89.8483 52.1047 92.2852 53.359 94.7611C54.6133 97.2369 54.3943 99.9558 55.4391 102.103C56.4839 104.25 56.2403 108.423 58.0528 107.471C59.8653 106.52 59.2784 104.247 60.3232 101.752C61.3681 99.2584 64.8625 98.6754 62.5164 96.0081C60.1703 93.3409 57.4133 91.8063 59.6846 88.4472C60.6904 86.9658 56.7635 86.2946 56.1853 81.8958Z" fill="url(#paint20_linear)"/>
<path d="M56.8837 107.127C56.8837 107.127 58.6939 105.437 57.7685 101.805C56.8431 98.1726 55.0935 98.0678 60.6274 97.4697C66.1614 96.8716 63.9722 88.0922 68.3244 88.6037C72.6765 89.1152 80.25 78.8155 82.7984 81.3605C85.3468 83.9054 79.2601 88.1255 80.8489 90.5918C82.4376 93.0581 81.9638 95.3187 76.8264 95.4768C71.689 95.6348 77.0653 105.027 70.2165 104.908C63.3678 104.79 62.3014 113.391 56.8837 107.127Z" fill="url(#paint21_linear)"/>
<path d="M95.3644 90.2359C90.1084 94.9906 78.8421 95.0097 87.044 100.725C95.2458 106.441 97.1985 111.915 91.8405 113.603C75.8334 110.552 43.2722 110.22 33.2467 111.639C17.4507 113.875 13.992 102.588 26.9729 95.9493C33.3901 92.6681 67.9366 86.996 93.5678 85.4082H93.575C93.8219 85.4129 100.526 85.5678 95.3644 90.2359Z" fill="url(#paint22_linear)"/>
<path d="M102.569 86.2105C103.115 86.3137 105.222 86.5282 106.194 83.9387C105.999 84.1089 105.761 84.2217 105.505 84.2648C105.25 84.3078 104.987 84.2794 104.747 84.1826C104.126 83.9523 103.205 84.3264 102.736 85.0865C102.886 83.4407 102.576 82.312 102.517 80.8108C102.507 80.5828 102.506 80.3763 102.51 80.1857C102.885 80.1166 105.159 79.5812 105.018 76.6542C104.906 76.8874 104.732 77.0851 104.514 77.2253C104.297 77.3655 104.044 77.4428 103.785 77.4485C103.048 77.4851 102.265 78.3572 102.272 79.3795C102.127 79.7774 102.055 80.1982 102.059 80.6218C102.049 81.3493 102.237 82.096 102.351 82.9173C102.246 82.6864 102.112 82.4694 101.953 82.2715C101.011 81.115 99.9825 80.9736 99.789 80.6766C99.789 80.6766 99.4259 81.9959 100.893 82.8831C101.792 83.4256 102.228 83.9411 102.432 84.2604C102.408 84.9083 102.273 85.5473 102.034 86.1501C101.127 88.4615 102.379 90.8825 102.379 90.8825L103.18 90.3885C103.18 90.3885 101.963 88.9897 102.52 86.49C102.54 86.3915 102.548 86.305 102.569 86.2105Z" fill="#ADD14D"/>
<path d="M96.0764 92.0779C96.0764 92.0779 102.085 85.4058 109.336 92.0557L96.0764 92.0779Z" fill="#877373"/>
<path d="M108.93 93.2519C109.475 93.3551 111.582 93.5696 112.555 90.9802C112.36 91.1503 112.121 91.2632 111.866 91.3062C111.61 91.3493 111.348 91.3208 111.108 91.224C110.487 90.9937 109.565 91.3678 109.095 92.128C109.246 90.4822 108.936 89.3535 108.877 87.8522C108.868 87.6243 108.867 87.4178 108.871 87.2271C109.245 87.158 111.519 86.6227 111.378 83.6957C111.266 83.9288 111.092 84.1265 110.875 84.2668C110.657 84.407 110.405 84.4843 110.146 84.49C109.408 84.5265 108.626 85.3987 108.633 86.4201C108.488 86.8184 108.416 87.2395 108.42 87.6632C108.411 88.3908 108.598 89.1374 108.712 89.9587C108.606 89.7281 108.473 89.5113 108.314 89.313C107.372 88.1565 106.344 88.0151 106.15 87.718C106.15 87.718 105.787 89.0373 107.254 89.9246C108.153 90.4671 108.588 90.9826 108.793 91.3019C108.769 91.9498 108.634 92.5888 108.395 93.1915C107.488 95.5029 108.739 97.924 108.739 97.924L109.541 97.4299C109.541 97.4299 108.323 96.0311 108.88 93.5315C108.9 93.433 108.911 93.3472 108.93 93.2519Z" fill="#ADD14D"/>
<path d="M102.139 98.7564C102.139 98.7564 108.149 92.0843 115.399 98.7342L102.139 98.7564Z" fill="#877373"/>
<path d="M120.525 109.107C121.07 109.211 123.178 109.425 124.149 106.835C123.954 107.005 123.716 107.118 123.461 107.161C123.205 107.204 122.943 107.176 122.703 107.079C122.082 106.849 121.16 107.223 120.691 107.984C120.841 106.338 120.531 105.208 120.472 103.707C120.463 103.479 120.462 103.273 120.466 103.082C120.84 103.014 123.114 102.478 122.973 99.5515C122.861 99.7846 122.687 99.9823 122.47 100.123C122.252 100.263 122 100.34 121.741 100.346C121.004 100.383 120.221 101.255 120.228 102.277C120.083 102.675 120.011 103.096 120.015 103.52C120.006 104.247 120.193 104.993 120.308 105.815C120.201 105.584 120.068 105.368 119.909 105.17C118.967 104.013 117.939 103.872 117.745 103.575C117.745 103.575 117.382 104.894 118.849 105.78C119.748 106.324 120.183 106.839 120.388 107.158C120.364 107.806 120.229 108.445 119.99 109.047C119.082 111.359 120.335 113.78 120.335 113.78L121.136 113.286C121.136 113.286 119.918 111.888 120.475 109.387C120.495 109.288 120.506 109.202 120.525 109.107Z" fill="#ADD14D"/>
<path d="M113.734 114.611C113.734 114.611 119.744 107.939 126.994 114.589L113.734 114.611Z" fill="#877373"/>
<path d="M136.577 103.432C137.123 103.536 139.23 103.75 140.202 101.161C140.007 101.331 139.768 101.443 139.513 101.487C139.257 101.53 138.995 101.501 138.755 101.405C138.133 101.173 137.213 101.548 136.743 102.308C136.894 100.663 136.584 99.5332 136.524 98.032C136.514 97.8048 136.514 97.5975 136.518 97.4069C136.892 97.3386 139.166 96.8024 139.025 93.8762C138.914 94.1093 138.739 94.3069 138.522 94.4471C138.304 94.5873 138.052 94.6646 137.793 94.6705C137.055 94.7071 136.272 95.5792 136.28 96.6007C136.134 96.9988 136.062 97.42 136.067 97.8437C136.057 98.5713 136.245 99.3172 136.358 100.138C136.253 99.9079 136.119 99.6913 135.96 99.4935C135.018 98.337 133.99 98.1956 133.796 97.8986C133.796 97.8986 133.433 99.2179 134.9 100.104C135.799 100.648 136.235 101.163 136.44 101.482C136.415 102.13 136.281 102.769 136.041 103.372C135.134 105.683 136.387 108.104 136.387 108.104L137.187 107.61C137.187 107.61 135.971 106.212 136.527 103.712C136.547 103.613 136.558 103.528 136.577 103.432Z" fill="#ADD14D"/>
<path d="M129.784 108.937C129.784 108.937 135.793 102.265 143.044 108.914L129.784 108.937Z" fill="#877373"/>
<path d="M79.8328 52.1501C79.8328 52.1501 81.3507 51.5186 81.5848 51.4297C81.8189 51.3407 82.503 51.4988 83.2715 51.7474C84.04 51.996 84.9662 52.6775 85.0036 52.8109C85.041 52.9444 85.1406 53.0635 85.0219 53.3995C84.9374 53.6165 84.798 53.8081 84.6174 53.9555C84.6174 53.9555 84.6667 54.4393 84.2988 54.6831C84.3119 54.825 84.2795 54.9674 84.2064 55.0898C84.1333 55.2123 84.0232 55.3085 83.8919 55.3646C83.8919 55.3646 83.868 55.7951 83.5152 55.9206C83.5152 55.9206 82.8303 55.7618 82.5595 55.7784C82.2888 55.7951 80.8872 55.3686 79.6058 54.7546C79.6018 54.7538 78.1596 54.1358 79.8328 52.1501Z" fill="#EEA886"/>
<path d="M81.9575 53.1176C81.9575 53.1176 81.3801 53.707 81.1341 53.7911C80.888 53.8753 81.7711 55.5076 81.7711 55.5076C81.7711 55.5076 82.6567 53.8372 81.9575 53.1176Z" fill="#CF8C6C"/>
<path d="M79.2944 52.1851C79.2944 52.1851 80.0111 52.2462 80.477 52.1334C80.9429 52.0207 79.9642 54.2828 79.9642 54.2828C79.9642 54.2828 79.0635 53.3575 78.3873 53.201C77.7112 53.0445 79.2944 52.1851 79.2944 52.1851Z" fill="#EEA886"/>
<path d="M83.1453 46.4159L73.6635 93.4453L74.6253 93.6382L84.1072 46.6088L83.1453 46.4159Z" fill="#8A664D"/>
<path d="M69.4991 90.5799L67.5997 100.003C68.7051 103.363 71.9798 104.333 71.9798 104.333C71.9798 104.333 75.3779 104.7 77.6993 102.03L79.5979 92.6061L69.4991 90.5799Z" fill="#4A3F3F"/>
<path d="M69.566 101.577C69.566 101.577 70.9389 103.1 72.331 103.418C73.723 103.736 74.697 104.142 74.709 105.017C74.7209 105.892 70.7072 106.477 69.1136 105.597C66.7349 104.283 66.4944 104.681 66.2292 104.023C65.964 103.364 66.5087 101.604 66.5246 101.393C66.5437 101.134 69.566 101.577 69.566 101.577Z" fill="#244057"/>
<path d="M55.5841 101.999C55.5841 101.999 56.5947 103.483 57.9437 103.826C59.2745 104.162 60.1369 104.803 60.2038 105.652C60.2707 106.502 57.0717 107.624 54.8211 106.129C53.3423 105.15 52.7912 105.206 52.4925 104.583C52.1939 103.959 52.5961 102.216 52.6144 102.006C52.6359 101.757 55.5841 101.999 55.5841 101.999Z" fill="#244057"/>
<path d="M66.5111 58.0518C66.5111 58.0518 67.923 68.1179 68.5171 71.8654C69.2124 76.2468 69.3382 78.6622 69.5333 80.9307C69.7794 83.7831 69.2402 100.013 69.4107 100.847C69.5811 101.681 66.7078 100.421 66.7078 100.421C66.7078 100.421 64.1705 82.6417 63.4474 79.6043C62.7737 76.7758 60.2715 64.5984 59.6623 65.372C59.053 66.1457 58.3196 79.59 57.872 81.8219C57.4245 84.0539 55.5418 101.263 55.5418 101.263C55.5418 101.263 53.6306 101.698 52.7999 100.999C52.7999 100.999 51.7336 86.3979 52.0139 82.2135C52.1214 80.6194 50.1082 63.0995 52.6391 56.0414C53.9762 52.309 66.5111 58.0518 66.5111 58.0518Z" fill="#EEA886"/>
<path d="M66.5111 58.0517C66.5111 58.0517 67.923 68.1179 68.5171 71.8654C69.2123 76.2467 69.3382 78.6622 69.5333 80.9307C69.7794 83.783 69.7037 94.6435 69.7093 95.4942C69.7164 96.4386 65.5809 95.958 65.5809 95.958C65.5809 95.958 64.1705 82.6416 63.4474 79.6042C62.7737 76.7757 60.2715 64.5984 59.6623 65.372C59.053 66.1456 58.3196 79.5899 57.872 81.8219C57.4245 84.0539 56.4386 96.9136 56.4386 96.9136C56.4386 96.9136 52.8501 97.4211 52.0203 96.723C52.0203 96.723 51.732 86.3971 52.0123 82.2111C52.1198 80.617 50.1066 63.0971 52.6375 56.039C53.9762 52.309 66.5111 58.0517 66.5111 58.0517Z" fill="#244057"/>
<path d="M66.7118 100.421C66.7118 100.421 68.6278 101.146 69.3955 100.631L69.6344 101.644C69.6344 101.644 69.0181 102.003 67.9565 101.871C66.8949 101.739 66.5294 101.394 66.5294 101.394L66.7118 100.421Z" fill="#81807E"/>
<path d="M52.7864 100.815C52.7864 100.815 54.9892 101.627 55.5737 100.984L55.6749 102.12C55.6749 102.12 55.4574 102.473 54.5966 102.432C53.7357 102.39 52.616 102.009 52.616 102.009L52.7864 100.815Z" fill="#81807E"/>
<path d="M80.1529 52.0174L79.7937 54.9945C70.4364 50.4312 69.2092 48.2771 68.8635 47.8386C68.6246 47.5368 67.5894 45.887 67.0797 44.6614C67.0367 44.559 67 44.4605 66.9642 44.3652L66.5135 42.9624C66.3112 45.8219 66.3948 50.1699 66.4083 56.0684L66.6417 58.9652C63.4626 60.8604 51.74 60.1971 51.74 60.1971L52.0036 53.2073C52.0036 53.2073 52.2226 50.7529 52.2313 48.6274C52.2313 48.3843 52.2313 48.1452 52.2258 47.9125C52.2258 47.9125 52.2162 47.559 52.1772 47.0189C52.0928 45.8442 51.869 43.7901 51.3012 42.5812C50.4897 40.8671 47.8035 39.9489 47.649 39.8972H47.6427C47.6427 39.8972 47.6235 39.7805 47.5933 39.5795C47.5933 39.5533 47.5869 39.5398 47.5869 39.5398C47.4467 38.5994 47.1091 36.0354 47.3273 34.6843C47.7549 33.0099 48.7767 32.6278 49.0626 32.4666C52.041 30.7985 55.6366 29.5412 55.6366 29.5412C56.5533 29.5928 59.2888 29.8438 60.1688 29.9256C60.1688 29.9256 65.5921 31.9844 67.1832 33.7001L71.9359 44.6456L80.1529 52.0174Z" fill="#FFBF55"/>
<path d="M60.8982 31.1687C60.8982 31.1687 59.0666 32.1679 55.6024 30.4657C55.6024 30.4657 55.85 27.0209 55.2536 24.7357C54.6571 22.4505 59.863 27.9446 59.863 27.9446C59.8048 27.9828 59.7833 28.2075 59.8032 28.5237C59.8096 28.6269 59.82 28.7397 59.8343 28.8589C59.8526 29.0082 59.8781 29.1678 59.9139 29.3299C59.9227 29.3744 59.9314 29.4188 59.9418 29.4641C60.1074 30.2274 60.4204 31.0217 60.8982 31.1687Z" fill="#EEA886"/>
<path d="M58.5203 39.8615C58.5203 39.8615 54.9103 42.0561 54.1243 42.3683C53.5597 42.5931 52.7657 41.7416 52.0346 39.7201C52.0346 39.7201 50.0628 36.9115 47.5797 39.5414C47.5797 39.5414 48.5282 45.7695 51.3227 47.1865C52.2465 47.6544 60.242 42.0625 60.242 42.0625C60.242 42.0625 59.2824 40.705 58.5203 39.8615Z" fill="#FFBF55"/>
<path d="M55.6525 29.0408C55.6525 29.0408 58.9758 30.4157 59.9235 29.3783L60.2261 29.9344L61.3179 31.4435C61.3179 31.4435 56.6448 32.7247 55.4821 31.2386L55.6525 29.0408Z" fill="#FFBF55"/>
<path d="M67.0797 44.6654C67.0366 44.563 67 44.4645 66.9642 44.3692L66.5134 42.9664C66.5134 42.9664 66.4521 42.1912 66.3327 41.1936C66.1917 40.0267 65.9719 38.5549 65.6765 37.6605C65.6765 37.6605 66.1662 38.296 66.5684 39.7448C66.6241 39.9444 66.6772 40.1591 66.7277 40.3889C66.961 41.4557 67.1282 42.8656 67.0797 44.6654Z" fill="#AB8039"/>
<path d="M58.1046 43.5169C55.5044 46.563 52.2282 48.6298 52.2282 48.6298C52.2282 48.3868 52.2282 48.1477 52.2226 47.9149C52.2226 47.9149 52.213 47.5615 52.174 47.0214L52.1884 47.015C53.66 46.4391 56.4816 44.5797 56.7428 44.4065C56.7523 44.4026 58.1014 43.5177 58.1046 43.5169Z" fill="#AB8039"/>
<path d="M59.9131 29.3299C57.5654 29.6135 56.5214 27.3402 56.5214 27.3402C58.0863 29.2521 59.8216 28.8319 59.8662 28.8215C59.8805 28.9709 59.8813 29.1679 59.9131 29.3299Z" fill="#A77860"/>
<path d="M31.3951 22.6832L31.9414 21.8794L74.693 46.0181L74.1467 46.8219L31.3951 22.6832Z" fill="#8A664D"/>
<path d="M31.9414 21.8794L27.8767 20.17L27.5996 20.6585L31.5368 22.7634L31.9414 21.8794Z" fill="#4A3F3F"/>
<path d="M25.6206 19.0414L30.4005 21.3877L28.1778 28.6302L21.1243 25.1678L25.6206 19.0414Z" fill="#4A3F3F"/>
<path d="M63.2228 39.0482C63.2228 39.0482 63.1535 39.3953 63.0492 39.5319C63.0492 39.5319 62.8406 39.7702 62.702 39.9433C62.6656 39.9882 62.6318 40.0351 62.6009 40.0839C62.5157 40.2285 62.3707 40.5708 62.0673 40.8607C61.7639 41.1507 60.1361 42.0625 60.1361 42.0625L59.3915 41.3246L58.5951 40.7337C58.5951 40.7337 59.2665 38.2594 59.5173 37.9536C59.5423 37.9256 59.5689 37.8991 59.597 37.8742C59.8359 37.6359 60.1098 37.5628 60.2484 37.4532C60.3002 37.4135 60.8353 37.0513 61.0209 37.1053C61.2789 37.18 61.427 37.3356 61.4812 37.5112C61.4812 37.5112 61.9797 37.6788 62.1669 37.979C62.1669 37.979 62.6311 38.1188 62.7585 38.5581C62.7554 38.5605 63.2077 38.7559 63.2228 39.0482Z" fill="#EEA886"/>
<path d="M95.9475 69.6604L85.0794 69.6793L85.112 88.2667L95.98 88.2477L95.9475 69.6604Z" fill="#CFC147"/>
<path d="M95.9481 72.5485C95.9481 72.5485 96.289 76.3024 96.543 77.9068C96.7971 79.5113 96.7278 87.8912 96.5606 88.2534L84.2518 88.274C84.2518 88.274 83.7382 81.8148 84.2367 79.7965C84.7352 77.7782 85.0808 72.8495 85.0808 72.8495L95.9481 72.5485Z" fill="#CFC147"/>
<path d="M86.2005 77.4414C86.2005 77.4414 85.4097 80.1984 85.4121 81.2842C85.4145 82.37 85.8191 86.7958 85.8191 86.7958L95.0514 86.7807C95.0514 86.7807 94.9184 82.8553 95.0418 81.4772C95.1653 80.0991 94.4047 77.4263 94.4047 77.4263L86.2005 77.4414Z" fill="#639C38"/>
<path d="M84.8053 52.7554C84.8053 52.7554 82.8621 52.1763 82.7299 52.4766C82.5977 52.7768 82.7299 52.9682 82.7299 52.9682L81.8213 53.0913C81.8213 53.0913 81.2638 53.5115 81.8874 53.9921C81.8874 53.9921 81.3299 54.3304 81.9837 54.7228C81.9837 54.7228 81.7146 55.1104 81.9837 55.3456C82.2529 55.5807 83.5064 55.9198 83.5064 55.9198C83.5064 55.9198 83.8815 55.9008 83.9205 55.3892C84.0475 55.3262 84.154 55.2284 84.2274 55.1073C84.3009 54.9863 84.3384 54.8468 84.3354 54.7054C84.3354 54.7054 84.7105 54.5115 84.6866 53.9857C84.6866 53.9857 85.3484 53.4686 84.9972 52.8276C85.002 52.8276 84.8873 52.7792 84.8053 52.7554Z" fill="#DB9C7C"/>
<path d="M81.6835 51.471C81.6835 51.471 82.6885 52.4313 83.0063 53.1962C83.0788 53.3694 83.1162 53.5497 82.9824 53.6815C82.8486 53.8134 82.4871 53.7872 82.0268 53.3932C81.5665 52.9992 80.7995 52.699 80.7995 52.699C80.7995 52.699 80.4515 52.1573 81.6835 51.471Z" fill="#EEA886"/>
<path d="M105.507 102.058C105.507 102.058 104.539 103.144 103.552 103.37C102.564 103.595 101.879 103.888 101.871 104.509C101.862 105.129 104.71 105.533 105.837 104.906C107.519 103.969 107.691 104.251 107.877 103.784C108.062 103.316 107.65 102.069 107.662 101.92C107.676 101.737 105.507 102.058 105.507 102.058Z" fill="#292C47"/>
<path d="M115.416 102.324C115.416 102.324 114.703 103.378 113.748 103.623C112.807 103.861 112.196 104.321 112.151 104.924C112.106 105.527 114.375 106.313 115.967 105.251C117.013 104.553 117.4 104.592 117.613 104.15C117.827 103.707 117.5 102.467 117.521 102.323C117.547 102.146 115.416 102.324 115.416 102.324Z" fill="#292C47"/>
<path d="M107.53 101.232C107.53 101.232 106.176 101.751 105.628 101.391L105.462 102.106C105.462 102.106 105.899 102.358 106.651 102.265C107.404 102.172 107.662 101.922 107.662 101.922L107.53 101.232Z" fill="#202338"/>
<path d="M117.395 101.476C117.395 101.476 115.837 102.057 115.422 101.602L115.353 102.408C115.353 102.408 115.508 102.657 116.118 102.625C116.728 102.594 117.521 102.322 117.521 102.322L117.395 101.476Z" fill="#202338"/>
<path d="M108.336 71.1831C108.336 71.1831 106.59 78.3429 106.178 80.9998C105.7 84.1071 105.613 85.8188 105.48 87.4265C105.313 89.4488 105.734 100.949 105.615 101.54C105.497 102.131 107.527 101.232 107.527 101.232C107.527 101.232 109.279 88.6267 109.787 86.4725C110.257 84.4661 112.001 75.8289 112.435 76.377C112.868 76.9251 113.42 86.4495 113.743 88.0309C114.066 89.6124 115.441 101.802 115.441 101.802C115.441 101.802 116.795 102.105 117.383 101.609C117.383 101.609 118.1 91.2582 117.895 88.2939C117.816 87.1644 119.199 74.7439 117.389 69.7478C116.436 67.1075 108.336 71.1831 108.336 71.1831Z" fill="#EEA886"/>
<path d="M108.149 69.6533C108.149 69.6533 106.59 78.3429 106.178 80.9998C105.7 84.1071 105.613 85.8188 105.48 87.4265C105.313 89.4488 104.895 100.896 104.894 101.5C104.894 102.169 108.06 101.738 108.06 101.738C108.06 101.738 109.284 88.6323 109.79 86.4749C110.26 84.4685 112.005 75.8313 112.438 76.3794C112.871 76.9275 113.423 86.4519 113.746 88.0334C114.07 89.6148 114.782 102.251 114.782 102.251C114.782 102.251 117.338 102.239 117.924 101.742C117.924 101.742 118.104 91.2574 117.895 88.2963C117.816 87.1668 119.199 74.7463 117.389 69.7502C116.436 67.1075 108.149 69.6533 108.149 69.6533Z" fill="#292C47"/>
<path d="M99.6066 57.1915C99.6066 57.1915 98.6948 56.2447 98.5809 56.1105C98.467 55.9762 97.994 55.8436 97.4373 55.7371C96.8807 55.6307 96.0835 55.7372 96.0126 55.8055C95.9418 55.8738 95.843 55.9143 95.8016 56.1605C95.7802 56.3219 95.8007 56.486 95.8613 56.6371C95.8613 56.6371 95.667 56.9175 95.8127 57.1931C95.7646 57.28 95.7434 57.3791 95.7516 57.4781C95.7598 57.577 95.7971 57.6713 95.8589 57.7491C95.8589 57.7491 95.6996 58.0192 95.8748 58.2138C95.8748 58.2138 96.2993 58.3726 96.5119 58.4521C96.6919 58.5132 97.6866 58.6633 98.6821 58.719C98.6797 58.719 99.9618 58.9723 99.6066 57.1915Z" fill="#EEA886"/>
<path d="M98.2927 58.8445C98.2927 58.8445 102.34 60.3163 103.071 60.5435C103.628 60.7182 104.345 61.2337 105.644 60.4497C106.248 60.0851 107.05 59.3433 107.794 58.5768C107.966 58.3996 108.134 58.2217 108.297 58.047C109.142 57.1367 109.82 56.3114 109.897 56.1804C110.051 55.9143 113.105 53.7101 110.977 52.2335C110.499 51.9023 108.661 51.1064 107.618 52.2375C106.702 53.2319 106.281 55.0969 106.06 55.5179C105.798 56.016 104.662 58.1264 104.662 58.1264C104.598 58.2853 103.058 57.8254 102.849 57.7626C102.239 57.5807 99.1918 56.6427 99.1918 56.6427L98.2927 58.8445Z" fill="#538742"/>
<path d="M114.234 47.6869C113.853 48.298 113.405 48.8654 112.899 49.3788C111.227 51.0468 107.854 50.6814 108.43 45.6027C108.54 44.6408 108.755 43.8759 109.027 43.2675C109.994 41.1006 111.66 40.9251 111.66 40.9251C112.865 41.0045 114.925 41.5605 115.429 43.1984C115.787 44.366 115.202 46.1516 114.234 47.6869Z" fill="#EEA987"/>
<path d="M114.234 47.6869C114.234 47.6869 114.056 47.7124 113.589 46.3835C113.495 46.1166 113.377 46.2842 113.337 46.1667L112.394 45.6599C112.394 45.6599 113.575 44.146 112.349 43.5351C111.1 42.9124 109.027 43.2675 109.027 43.2675C109.994 41.1006 111.66 40.9251 111.66 40.9251C112.865 41.0045 114.925 41.5605 115.429 43.1984C115.787 44.366 115.202 46.1516 114.234 47.6869Z" fill="#665249"/>
<path d="M113.14 45.3732C113.213 45.0308 113.89 44.7377 114.175 45.4701C114.461 46.2024 113.503 46.984 113.249 46.8204C112.995 46.6568 113.015 45.9387 113.14 45.3732Z" fill="#EEA987"/>
<path d="M115.334 45.6996C115.334 45.6996 112.421 43.1118 108.612 43.4398C108.612 43.4398 109.404 38.8329 113.533 40.149C117.414 41.381 115.535 45.1936 115.334 45.6996Z" fill="#538742"/>
<path d="M113.412 44.4517C113.412 44.4517 110.178 44.6297 108.209 43.9593C106.24 43.2889 108.728 42.9656 108.728 42.9656C108.728 42.9656 110.48 42.6447 113.412 44.4517Z" fill="#538742"/>
<path d="M111.009 51.0381C111.009 51.0381 108.572 51.5417 108.256 51.8213C107.914 52.1199 107.233 55.1287 107.198 55.9397C107.164 56.7507 107.378 60.0939 107.724 61.3552C108.07 62.6166 108.051 68.6413 107.838 70.3904C107.838 70.3904 112.885 71.5898 118.161 70.8955C118.161 70.8955 117.326 64.5872 117.534 62.858C117.801 60.6419 118.671 55.811 118.671 55.811C118.671 55.811 118.6 52.4623 118.129 52.0667C117.659 51.6711 114.018 51.0341 114.018 51.0341L111.009 51.0381Z" fill="#538742"/>
<path d="M110.464 51.5981C110.464 51.5981 111.213 52.1541 113.713 51.054C113.713 51.054 113.347 49.8157 113.835 48.2167C114.324 46.6178 110.73 49.768 110.73 49.768C110.77 49.7958 110.778 49.9555 110.755 50.1787C110.755 50.193 110.755 50.2073 110.75 50.2224C110.729 50.4059 110.696 50.5879 110.652 50.7672C110.645 50.7911 110.64 50.8149 110.633 50.8395C110.491 51.3733 110.464 51.1318 110.464 51.5981Z" fill="#EEA886"/>
<path d="M110.648 50.7672C112.441 50.9936 113.416 49.0659 113.444 49.0087C112.22 50.795 110.748 50.2224 110.748 50.2224C110.726 50.4059 110.693 50.5879 110.648 50.7672Z" fill="#A77860"/>
<path d="M110.474 51.1501C110.474 51.1501 109.902 52.0016 110.701 52.1453C111.5 52.2891 113.131 52.1096 114.018 51.0294C114.016 51.0294 111.597 50.8236 110.474 51.1501Z" fill="#EEA886"/>
<path d="M107.366 59.0033C107.366 59.0033 107.187 56.6554 107.194 56.2606C106.956 57.3413 106.821 58.4421 106.792 59.5482L107.366 59.0033Z" fill="#2A3E4F"/>
<path d="M98.5379 56.097C98.5379 56.097 97.5823 56.3496 97.126 56.7157C97.0216 56.7952 96.9364 56.8976 96.9739 57.0247C97.0113 57.1518 97.2454 57.263 97.6635 57.1709C98.0816 57.0787 98.6629 57.1589 98.6629 57.1589C98.6629 57.1589 99.0659 56.9421 98.5379 56.097Z" fill="#EEA886"/>
<path d="M105.208 70.2252C105.2 70.0497 105.048 65.8915 107.39 63.4434C108.473 62.3124 109.916 61.7373 111.675 61.7341C113.434 61.7309 114.879 62.3012 115.967 63.4292C118.32 65.8692 118.179 70.0274 118.172 70.2037L118.16 70.4921L105.22 70.5143L105.208 70.2252ZM115.529 63.847C114.559 62.8422 113.263 62.3378 111.674 62.3378C110.085 62.3378 108.791 62.8525 107.826 63.8597C105.994 65.766 105.817 68.9432 105.806 69.9122L117.567 69.8924C117.557 68.9233 117.368 65.7517 115.529 63.847Z" fill="#FACE87"/>
<path d="M103.203 67.859C103.203 67.859 103.507 67.8645 103.641 67.8018C103.641 67.8018 103.88 67.6691 104.05 67.5849C104.094 67.5626 104.14 67.5427 104.187 67.5253C104.324 67.4801 104.638 67.4213 104.937 67.2195C105.235 67.0178 106.298 65.8208 106.298 65.8208L105.811 65.0638L105.458 64.291C105.458 64.291 103.255 64.4061 102.955 64.5618C102.928 64.5761 102.901 64.5923 102.876 64.6103C102.637 64.7691 102.521 64.9836 102.404 65.0797C102.361 65.1154 101.96 65.4983 101.971 65.6635C101.972 65.7555 101.996 65.8459 102.041 65.926C102.086 66.0062 102.151 66.0736 102.23 66.1218C102.23 66.1218 102.281 66.569 102.499 66.7803C102.499 66.7803 102.533 67.1941 102.88 67.38C102.877 67.38 102.959 67.7978 103.203 67.859Z" fill="#EEA886"/>
<path d="M117.348 51.753C116.742 51.6592 114.898 51.6132 114.273 54.3225C113.989 55.5561 113.737 56.958 113.706 57.46C113.675 57.962 112.729 61.5665 112.39 61.8286C111.959 62.1654 109.709 62.8763 109.5 62.9716C108.778 63.2989 105.324 64.1869 105.324 64.1869L105.583 66.8081C105.583 66.8081 113.171 64.9685 113.995 64.5237C114.539 64.2298 115.333 63.7159 116.021 62.275C116.778 60.6864 118.473 57.2948 118.496 56.9723C118.519 56.6498 120.046 52.17 117.348 51.753Z" fill="#538742"/>
<path d="M115.875 64.2409C115.875 64.2409 114.144 62.0296 111.227 62.3521V61.7476C111.227 61.7476 114.05 61.3552 116.128 63.6031L115.875 64.2409Z" fill="#FACE87"/>
<path d="M98.0991 53.7665C98.0991 53.7665 99.2786 53.8118 99.011 54.9429C98.7434 56.0739 96.6219 60.8127 96.4164 60.8802C96.2627 60.7285 96.4889 55.5426 96.7565 54.4123C97.024 53.282 98.0991 53.7665 98.0991 53.7665Z" fill="url(#paint23_linear)"/>
<path d="M98.0991 53.7665C98.0991 53.7665 97.775 53.4416 97.8753 53.2542C97.9757 53.0667 98.1342 53.3773 98.1596 52.8856C98.1851 52.394 97.8586 52.243 98.2456 52.135C98.6327 52.027 98.9114 51.1104 98.9919 51.4035C99.0723 51.6966 98.733 52.0754 98.6892 52.3137C98.6454 52.552 98.8644 52.4543 98.7091 52.8038C98.5538 53.1533 98.0991 53.7665 98.0991 53.7665Z" fill="#959C4D"/>
<path d="M97.9497 54.5785L98.524 54.7136L98.5315 54.6819L97.9572 54.5468L97.9497 54.5785Z" fill="#CF433E"/>
<path d="M96.8759 55.0453L97.4501 55.1804L97.4573 55.1486L96.8831 55.0135L96.8759 55.0453Z" fill="#CF433E"/>
<path d="M97.6014 56.0533L98.1756 56.1883L98.1835 56.1565L97.6085 56.0215L97.6014 56.0533Z" fill="#CF433E"/>
<path d="M96.9406 56.629L97.5149 56.7642L97.5224 56.7325L96.9481 56.5973L96.9406 56.629Z" fill="#CF433E"/>
<path d="M97.0662 57.7173L97.6412 57.8524L97.6484 57.8214L97.0734 57.6864L97.0662 57.7173Z" fill="#CF433E"/>
<path d="M96.16 55.8277C96.16 55.8277 97.5639 56.1311 97.5424 56.3631C97.5419 56.4237 97.526 56.4833 97.4964 56.5363C97.4667 56.5893 97.4243 56.6341 97.3728 56.6665L97.8944 57.0533C97.8944 57.0533 98.0943 57.5037 97.5448 57.5895C97.5448 57.5895 97.775 57.9866 97.2343 58.0104C97.2343 58.0104 97.2677 58.3425 97.0192 58.3957C96.7708 58.4489 95.8749 58.217 95.8749 58.217C95.8749 58.217 95.6734 58.1002 95.8239 57.7698C95.8239 57.7698 95.5946 57.4997 95.7721 57.2034C95.7721 57.2034 95.6129 56.9651 95.8088 56.6474C95.8088 56.6474 95.5754 56.0811 96.0126 55.8031C96.0126 55.8039 96.0979 55.815 96.16 55.8277Z" fill="#DB9C7C"/>
<path d="M115.538 67.9797C118.086 67.9797 118.184 70.3832 118.184 70.3832L113.311 70.3912C113.311 70.3912 112.988 67.9844 115.538 67.9797Z" fill="#9CCC9B"/>
<path d="M112.807 69.1886C113.991 69.0726 114.13 70.3896 114.13 70.3896L111.582 70.3943C111.582 70.3943 111.627 69.3069 112.807 69.1886Z" fill="#CA595B"/>
<path d="M111.532 69.1902C112.717 69.075 112.855 70.392 112.855 70.392H110.307C110.307 70.392 110.348 69.307 111.532 69.1902Z" fill="#EC686B"/>
<path d="M105.382 68.2696C104.513 66.1361 107.974 65.7668 108.204 67.1751C108.434 68.5834 110.806 70.3952 110.806 70.3952L106.665 71.2204C106.665 71.2204 106.252 70.4031 105.382 68.2696Z" fill="#9A6FA0"/>
<path d="M107.04 66.2751C108.405 66.2108 109.116 67.6707 109.116 67.6707C109.116 67.6707 107.088 66.7573 106.952 67.2005C106.815 67.6437 106.522 68.9265 106.522 68.9265C106.522 68.9265 106.177 66.9455 106.084 67.2585C105.99 67.5714 104.969 68.0925 104.969 68.0925C104.899 66.901 106.079 66.4245 106.079 66.4245C106.079 66.4245 105.675 66.3403 107.04 66.2751Z" fill="#82C07E"/>
<path d="M109.51 77.4255L114.079 77.4175C119.672 77.408 118.764 69.4531 118.764 69.4531L104.798 69.4769C104.798 69.4769 103.917 77.435 109.51 77.4255Z" fill="url(#paint24_linear)"/>
<path d="M109.51 77.4255L114.079 77.4175C119.672 77.408 118.764 69.4531 118.764 69.4531L113.707 69.4618C113.707 69.4618 114.156 77.4175 109.51 77.4255Z" fill="#F0B24E"/>
<path d="M55.2878 25.1845C55.6631 25.9872 56.1262 26.7462 56.6687 27.4474C58.463 29.735 62.6367 29.785 62.6877 23.4966C62.6973 22.3051 62.546 21.3393 62.3055 20.5577C61.4462 17.7681 59.4385 17.3074 59.4385 17.3074C57.9549 17.228 55.3595 17.5989 54.501 19.5267C53.8854 20.8984 54.3338 23.1661 55.2878 25.1845Z" fill="#EEA987"/>
<path d="M55.2878 25.1844C55.2878 25.1844 55.502 25.2416 56.2697 23.688C56.4234 23.3758 56.5429 23.5982 56.6098 23.4608L57.837 22.9842C57.837 22.9842 56.6185 20.9603 58.2065 20.3956C59.8247 19.8197 62.3038 20.56 62.3038 20.56C62.4782 15.5178 59.4369 17.3097 59.4369 17.3097C57.9533 17.2303 55.3579 17.6013 54.4994 19.529C53.8854 20.8984 54.3338 23.1661 55.2878 25.1844Z" fill="#665249"/>
<path d="M56.8599 22.5228C56.7675 22.1026 55.9345 21.742 55.5857 22.6459C55.2369 23.5498 56.4187 24.5061 56.7301 24.3076C57.0415 24.109 57.012 23.2178 56.8599 22.5228Z" fill="#EEA987"/>
<path d="M39.5858 38.1705L36.3517 32.6302C36.3517 32.6302 38.0376 31.9845 38.5927 31.7938C39.1478 31.6032 40.4777 29.6834 41.9191 28.762C41.9191 28.762 36.4154 27.8549 35.7656 27.5785L36.3397 24.1257C36.3397 24.1257 40.77 25.5483 43.1885 25.3473C45.6071 25.1463 47.7757 25.8684 47.6204 27.6992C47.4651 29.5301 42.5945 34.2077 41.5759 35.2196C41.5767 35.222 40.3001 36.4802 39.5858 38.1705Z" fill="#FFBF55"/>
<path d="M47.907 26.4426C47.9077 26.7119 47.8883 26.9809 47.8489 27.2473C47.7584 27.859 47.5677 28.4518 47.2843 29.0019C47.1182 29.3264 46.9239 29.6357 46.7037 29.9264C45.2766 31.8161 42.7219 33.0782 39.8024 33.083C36.8439 33.0877 34.2517 31.7994 32.831 29.8708C32.4998 29.4251 32.2318 28.936 32.0346 28.4173C31.8473 27.9235 31.7312 27.4058 31.6898 26.8795C31.6794 26.7445 31.6746 26.6078 31.6738 26.4696C31.6738 26.2472 31.6871 26.0249 31.7136 25.804C31.7515 25.4892 31.8168 25.1782 31.9088 24.8747C32.042 24.4346 32.227 24.0117 32.4598 23.6149C33.7611 21.3806 36.5484 19.8357 39.7801 19.8309C42.9401 19.8253 45.6796 21.294 47.027 23.4426C47.2046 23.7244 47.3581 24.0207 47.4857 24.3282C47.6943 24.8287 47.8284 25.357 47.8839 25.8962C47.9013 26.0778 47.909 26.2602 47.907 26.4426Z" fill="url(#paint25_linear)"/>
<path d="M47.4818 24.3282C46.9833 24.3697 46.4813 24.3387 45.9918 24.2361C44.7813 23.966 44.3903 23.9072 42.9082 23.9009C41.4262 23.8945 40.6441 23.68 39.7857 23.9056C38.9272 24.1312 38.4605 24.2774 37.25 24.3623C36.0395 24.4473 35.2591 24.0089 33.9714 24.3679C33.0579 24.6229 32.2807 24.7952 31.908 24.8747C32.0412 24.4346 32.2262 24.0117 32.4591 23.6149C33.2411 23.2614 34.5471 22.7483 35.1795 22.9318C36.1168 23.2019 36.8574 22.765 38.1061 22.6308C39.3548 22.4965 40.9539 22.3695 41.6571 22.6252C42.3603 22.881 44.2326 22.5656 45.2488 22.9914C45.7154 23.1884 46.3987 23.3226 47.0231 23.4425C47.2007 23.7244 47.3541 24.0206 47.4818 24.3282Z" fill="#3C6B4A"/>
<path d="M47.9071 26.4426C47.9078 26.7119 47.8883 26.9808 47.8489 27.2472C47.2843 27.229 46.7093 27.2186 46.2697 27.2329C45.06 27.2742 44.1992 27.5086 43.617 27.5102C43.0349 27.5117 41.4668 27.202 40.8448 27.1646C40.2229 27.1273 38.4653 27.2067 37.7629 27.2083H35.1866C34.1721 27.2083 32.9624 27.2877 32.9624 27.2877C32.9624 27.2877 32.2727 27.0685 31.6882 26.8731C31.6778 26.7381 31.673 26.6015 31.6722 26.4633C31.6722 26.2408 31.6855 26.0185 31.7121 25.7976C32.3492 25.7976 33.4163 25.8382 34.4412 25.8064C35.7688 25.7651 36.5118 25.8421 37.8369 25.8C39.1621 25.7579 40.6075 25.4069 41.8188 25.7937C43.0301 26.1805 43.7301 26.4736 44.4357 26.4418C44.9493 26.4188 46.6655 25.9557 47.8792 25.8898C47.8984 26.0734 47.9077 26.258 47.9071 26.4426Z" fill="#3C6B4A"/>
<path d="M47.2843 29.0019C47.1182 29.3264 46.9239 29.6357 46.7037 29.9264C45.0313 30.2322 44.2079 30.4666 43.3112 30.8184C42.4145 31.1703 40.7182 31.33 40.4538 31.33C40.1894 31.33 37.109 31.2196 37.109 31.2196C36.5546 30.9753 35.9795 30.7807 35.3905 30.6381C34.7805 30.4999 33.6385 30.2267 32.8333 29.8708C32.5022 29.4251 32.2342 28.936 32.037 28.4173C33.4266 28.9129 36.5022 29.7326 37.0278 29.7016C37.6912 29.6603 39.3691 29.8526 40.8146 29.8502C42.26 29.8478 43.1941 29.6913 43.9347 29.4943C44.6754 29.2974 44.3656 28.8176 45.807 28.9463C46.3143 28.9915 46.8311 29.005 47.2843 29.0019Z" fill="#3C6B4A"/>
<path d="M31.114 26.5308C31.552 27.6698 31.2064 28.8613 30.3407 29.1925C29.475 29.5237 28.4191 28.8692 27.9803 27.731C27.5415 26.5928 27.8887 25.4005 28.7543 25.0693C29.62 24.7381 30.6728 25.3926 31.114 26.5308Z" fill="#323657"/>
<path d="M36.5819 104.907C37.3989 105.15 37.6466 106.535 38.3418 106.941C39.0371 107.347 42.428 107.627 42.5491 106.568C42.6701 105.508 41.1236 104.561 40.4275 104.033C39.7315 103.505 37.9588 101.618 37.6402 100.926C37.6402 100.926 37.4531 101.338 36.8056 101.287C35.9671 101.22 35.7704 101.029 35.7704 101.029C35.6374 101.863 35.5163 102.431 35.4343 102.749C35.15 103.85 35.764 104.664 36.5819 104.907Z" fill="#1B384F"/>
<path d="M24.4372 105.189C25.2551 105.432 25.5027 106.816 26.1972 107.223C26.8916 107.63 30.2841 107.908 30.4044 106.849C30.5246 105.789 28.9789 104.842 28.2837 104.314C27.5884 103.786 25.8149 101.9 25.4964 101.208C25.4964 101.208 25.31 101.62 24.6626 101.568C23.8232 101.502 23.6273 101.31 23.6273 101.31C23.4951 102.144 23.3732 102.713 23.2912 103.031C23.0061 104.131 23.6201 104.946 24.4372 105.189Z" fill="#1B384F"/>
<path d="M26.9234 52.0437C26.9234 52.0437 24.614 55.0501 23.992 58.6125C23.37 62.1749 23.4114 73.9766 23.3892 75.7408C23.3669 77.5049 22.987 81.567 23.0419 85.3518C23.0905 88.6831 22.9249 102.27 22.9249 102.27L26.7371 102.204C26.7371 102.204 28.5576 88.1716 28.7599 86.7791C28.9622 85.3867 29.6263 80.2182 29.7076 79.6456C29.7888 79.0729 34.0876 63.5713 34.082 61.0034C34.0764 58.4354 32.498 47.8458 26.9234 52.0437Z" fill="#538742"/>
<path d="M38.4765 53.3352C38.6254 54.1533 41.3139 68.3474 41.5186 70.1791C41.748 72.222 42.1676 74.6843 42.0761 75.5319C41.8738 77.497 41.7041 79.4287 41.7041 79.4287L38.8946 101.877L35.103 101.811C35.103 101.811 34.5456 89.0596 34.6188 86.3518C34.6921 83.644 35.7449 78.9315 35.4542 77.7495C35.1636 76.5676 30.8918 63.1646 30.8918 63.1646C30.8918 63.1646 27.2444 47.9594 38.4765 53.3352Z" fill="#538742"/>
<path d="M38.2925 51.8848C38.4358 52.8562 39.0737 56.5243 39.0737 56.5243C32.6398 58.6006 24.9779 55.4123 24.9779 55.4123C25.1061 54.7078 26.8844 49.7537 27.1401 49.2406C27.3957 48.7275 27.7772 47.2826 27.3909 45.5002C27.2882 45.0284 26.9641 44.0149 26.4018 42.6956C26.155 42.1173 25.9782 41.6963 25.717 41.0601C24.602 38.3539 23.5086 35.4309 23.7133 34.9003C24.0748 33.9599 25.8507 33.5301 26.7068 33.3784C27.5629 33.2267 30.6433 32.0702 30.6433 32.0702L33.9283 32.0647C33.9283 32.0647 37.8146 32.6882 38.1897 33.0448C38.9455 33.7653 39.5881 37.5843 39.5881 37.5843C40.5334 40.2301 39.3054 43.1054 39.0984 43.7798C38.7082 45.0507 38.4477 46.6822 38.353 47.513C38.2582 48.3438 38.2192 51.3884 38.2925 51.8848Z" fill="#FFBF55"/>
<path d="M31.7089 18.4718C32.8859 18.3416 35.7337 19.1478 36.1056 23.4815C36.4775 27.8152 35.4311 29.9947 34.4691 30.465C33.5071 30.9352 30.8297 30.1933 29.6279 28.1035C28.4262 26.0137 26.9402 21.1486 28.6293 19.7793C30.3184 18.4099 31.7089 18.4718 31.7089 18.4718Z" fill="#EEA886"/>
<path d="M34.7932 22.7205C34.7932 22.7205 35.8285 23.4552 36.1805 24.4314C36.1805 24.4314 36.9522 18.9508 32.2671 18.5099C28.7018 18.174 27.5192 21.089 27.8274 22.958C28.1356 24.827 29.0275 26.997 29.0275 26.997C29.0275 26.997 29.362 25.8953 29.9991 25.8636C30.6362 25.8318 34.6817 23.4409 34.7932 22.7205Z" fill="#323657"/>
<path d="M32.5068 34.3959C30.4952 34.3959 30.0381 32.2958 30.0381 32.2958C30.0381 32.2958 30.4721 29.4546 29.342 27.5634C28.212 25.6722 33.914 30.6008 33.914 30.6008C33.914 30.6008 33.9092 31.0639 33.9395 31.6175C33.9706 32.2084 34.0597 32.7557 34.215 33.1036C34.2142 33.1036 34.5185 34.3928 32.5068 34.3959Z" fill="#EEA886"/>
<path d="M30.457 24.7635C30.2412 24.5554 29.2361 24.213 29.2162 25.4911C29.1963 26.7691 30.6545 27.7087 30.7811 26.812C30.9077 25.9152 30.8193 25.113 30.457 24.7635Z" fill="#EEA886"/>
<path d="M33.9387 31.6175C33.8686 31.5976 33.7922 31.5746 33.7085 31.5468C31.8347 30.9209 30.9356 29.561 30.9356 29.561C32.651 30.7445 33.922 30.5936 33.922 30.5936C33.922 30.5936 33.9084 31.0639 33.9387 31.6175Z" fill="#A77860"/>
<path d="M26.5515 43.0625C26.5515 43.0625 29.6104 41.3151 30.8583 39.2578L38.1053 38.7558L39.6598 41.9465C39.6598 41.9465 38.5369 46.9752 39.0729 56.5243C39.3341 61.1765 24.9771 55.4123 24.9771 55.4123C24.9771 55.4123 27.1966 48.4256 26.5515 43.0625Z" fill="#538742"/>
<path d="M30.8583 39.2578C30.8583 39.2578 29.4137 34.7955 27.4586 33.1822C27.4586 33.1822 27.9739 32.6596 28.4891 32.8455C28.4891 32.8455 29.9919 33.662 32.4519 39.1474C34.9118 44.6328 30.8583 39.2578 30.8583 39.2578Z" fill="#538742"/>
<path d="M38.1061 38.7559C38.1061 38.7559 37.5646 34.5787 36.7993 32.6104L36.1853 32.4666C36.1853 32.4666 37.1122 37.2499 37.0191 38.8337C36.9259 40.4175 38.1061 38.7559 38.1061 38.7559Z" fill="#538742"/>
<path d="M28.4517 25.2949C28.4517 25.2949 32.2193 23.6856 36.2243 23.9835C36.2243 23.9835 36.8614 17.1978 30.4307 18.5568C30.4307 18.5568 25.8842 19.4647 28.4517 25.2949Z" fill="#EDEDED"/>
<path d="M31.493 24.3727C31.493 24.3727 34.8083 22.6483 38.161 22.985C41.5138 23.3218 36.2243 23.9835 36.2243 23.9835C36.2243 23.9835 33.3255 24.0653 31.493 24.3727Z" fill="#EDEDED"/>
<path d="M41.3075 19.9762C41.7221 19.7426 42.1857 19.6091 42.6613 19.5864C43.1369 19.5636 43.6112 19.6522 44.0463 19.8452C45.7569 20.5958 45.9767 21.5569 45.7314 21.8524C45.4861 22.1478 41.2438 20.8897 41.3075 19.9762Z" fill="#EEA886"/>
<path d="M23.3581 55.5998C23.3581 55.5998 23.6767 55.796 23.9809 55.7626C24.5089 55.7038 25.0417 55.1065 25.6533 55.5362C26.2649 55.9659 25.3682 58.1574 24.9803 58.441C24.5925 58.7246 23.5859 58.3878 22.4216 57.3441C21.2573 56.3003 23.3581 55.5998 23.3581 55.5998Z" fill="#EEA886"/>
<path d="M25.4271 55.4195C26.2094 55.5919 26.9823 55.804 27.743 56.0549C28.7997 56.4076 29.9585 57.0081 29.9728 57.2305C29.9863 57.4831 28.8579 57.0263 27.7876 56.7436C26.8009 56.4822 26.9498 56.6896 26.9498 56.6896C26.9498 56.6896 26.9108 56.6284 27.9285 57.1097C29.0235 57.6268 30.0907 58.2615 30.0731 58.5307C30.0644 58.661 29.9879 58.7079 29.5579 58.5816C29.7888 58.7039 29.7857 58.7809 29.7411 58.8763C29.5077 59.3679 27.7748 58.8437 27.086 58.638C27.6139 58.8016 27.9827 58.974 27.6307 59.1884C27.2277 59.4323 24.8123 58.5863 23.9164 58.3615C22.9377 58.1121 25.4271 55.4195 25.4271 55.4195Z" fill="#EEA886"/>
<path d="M27.8632 34.0242C27.8632 34.0242 24.5981 33.1822 23.1121 35.0147C21.1785 37.3976 20.7683 38.1696 20.2045 39.3833C19.6717 40.5327 17.9118 43.5788 17.7358 43.8942C17.5598 44.2095 14.5893 47.7211 14.9676 49.3748C15.3459 51.0285 22.2942 57.6649 22.1453 57.9612C21.9963 58.2575 24.1139 55.7125 24.1139 55.7125C24.1139 55.7125 21.7527 52.3924 21.38 51.6616C20.7747 50.4701 19.2122 48.9229 19.9393 47.8927C20.793 46.6829 23.5087 42.5518 24.0215 41.9815C24.5344 41.4112 29.6057 35.4698 27.8632 34.0242Z" fill="#FFBF55"/>
</g>
<path d="M207.847 42.3247H210.88V46.6643C210.408 46.8149 209.928 46.9288 209.44 47.0061C208.951 47.0834 208.386 47.1221 207.743 47.1221C206.392 47.1221 205.34 46.7213 204.587 45.9197C203.835 45.114 203.458 43.9869 203.458 42.5383C203.458 41.6106 203.643 40.7988 204.014 40.103C204.388 39.4032 204.925 38.8701 205.625 38.5039C206.325 38.1336 207.145 37.9485 208.085 37.9485C209.037 37.9485 209.924 38.1235 210.746 38.4734L210.343 39.3889C209.537 39.0471 208.762 38.8762 208.018 38.8762C206.931 38.8762 206.083 39.1997 205.472 39.8467C204.862 40.4937 204.557 41.3909 204.557 42.5383C204.557 43.7428 204.85 44.6562 205.436 45.2788C206.026 45.9014 206.89 46.2126 208.03 46.2126C208.648 46.2126 209.253 46.1414 209.843 45.999V43.2524H207.847V42.3247ZM215.702 47.1221C214.713 47.1221 213.932 46.821 213.358 46.2188C212.788 45.6165 212.504 44.7804 212.504 43.7102C212.504 42.6319 212.768 41.7754 213.297 41.1406C213.83 40.5059 214.544 40.1885 215.439 40.1885C216.278 40.1885 216.941 40.4652 217.429 41.0186C217.917 41.5679 218.162 42.2942 218.162 43.1975V43.8384H213.553C213.574 44.6237 213.771 45.2198 214.146 45.6267C214.524 46.0336 215.055 46.2371 215.739 46.2371C216.459 46.2371 217.171 46.0865 217.875 45.7854V46.6887C217.517 46.8433 217.177 46.9532 216.855 47.0183C216.538 47.0875 216.154 47.1221 215.702 47.1221ZM215.427 41.0369C214.89 41.0369 214.461 41.2118 214.139 41.5618C213.822 41.9117 213.635 42.3959 213.578 43.0144H217.075C217.075 42.3756 216.933 41.8873 216.648 41.5496C216.363 41.2078 215.956 41.0369 215.427 41.0369ZM222.056 46.2859C222.235 46.2859 222.408 46.2737 222.574 46.2493C222.741 46.2208 222.874 46.1923 222.971 46.1638V46.939C222.861 46.9919 222.699 47.0346 222.483 47.0671C222.271 47.1038 222.08 47.1221 221.909 47.1221C220.615 47.1221 219.968 46.4405 219.968 45.0774V41.0979H219.01V40.6096L219.968 40.1885L220.396 38.7603H220.981V40.3105H222.922V41.0979H220.981V45.0347C220.981 45.4375 221.077 45.7467 221.268 45.9624C221.46 46.1781 221.722 46.2859 222.056 46.2859ZM230.576 41.0979H228.873V47H227.86V41.0979H226.664V40.6401L227.86 40.2739V39.9016C227.86 38.2577 228.578 37.4358 230.015 37.4358C230.369 37.4358 230.784 37.507 231.26 37.6494L230.997 38.4612C230.607 38.335 230.273 38.272 229.996 38.272C229.614 38.272 229.331 38.4001 229.148 38.6565C228.965 38.9088 228.873 39.3157 228.873 39.8772V40.3105H230.576V41.0979ZM234.849 40.1885C235.146 40.1885 235.412 40.2129 235.648 40.2617L235.508 41.2017C235.231 41.1406 234.987 41.1101 234.775 41.1101C234.234 41.1101 233.77 41.3298 233.384 41.7693C233.001 42.2087 232.81 42.756 232.81 43.4111V47H231.797V40.3105H232.633L232.749 41.5496H232.798C233.046 41.1142 233.345 40.7785 233.695 40.5425C234.045 40.3065 234.43 40.1885 234.849 40.1885ZM239.725 47.1221C238.737 47.1221 237.955 46.821 237.382 46.2188C236.812 45.6165 236.527 44.7804 236.527 43.7102C236.527 42.6319 236.792 41.7754 237.321 41.1406C237.854 40.5059 238.568 40.1885 239.463 40.1885C240.301 40.1885 240.964 40.4652 241.453 41.0186C241.941 41.5679 242.185 42.2942 242.185 43.1975V43.8384H237.577C237.597 44.6237 237.795 45.2198 238.169 45.6267C238.547 46.0336 239.078 46.2371 239.762 46.2371C240.482 46.2371 241.194 46.0865 241.898 45.7854V46.6887C241.54 46.8433 241.2 46.9532 240.879 47.0183C240.562 47.0875 240.177 47.1221 239.725 47.1221ZM239.451 41.0369C238.914 41.0369 238.484 41.2118 238.163 41.5618C237.845 41.9117 237.658 42.3959 237.601 43.0144H241.099C241.099 42.3756 240.956 41.8873 240.671 41.5496C240.387 41.2078 239.98 41.0369 239.451 41.0369ZM248.234 45.175C248.234 45.7976 248.002 46.2778 247.538 46.6155C247.074 46.9532 246.423 47.1221 245.585 47.1221C244.698 47.1221 244.006 46.9817 243.51 46.7009V45.761C243.831 45.9237 244.175 46.0519 244.541 46.1455C244.911 46.2391 245.267 46.2859 245.609 46.2859C246.138 46.2859 246.545 46.2025 246.83 46.0356C247.115 45.8647 247.257 45.6064 247.257 45.2605C247.257 45.0001 247.143 44.7783 246.915 44.5952C246.691 44.408 246.252 44.1883 245.597 43.936C244.974 43.7041 244.531 43.5027 244.266 43.3318C244.006 43.1568 243.811 42.9595 243.68 42.7397C243.554 42.52 243.491 42.2576 243.491 41.9524C243.491 41.4071 243.713 40.9779 244.156 40.6646C244.6 40.3472 245.208 40.1885 245.981 40.1885C246.702 40.1885 247.406 40.335 248.093 40.6279L247.733 41.4519C247.062 41.1752 246.453 41.0369 245.908 41.0369C245.428 41.0369 245.066 41.1121 244.822 41.2627C244.578 41.4132 244.456 41.6208 244.456 41.8853C244.456 42.0643 244.5 42.2169 244.59 42.343C244.683 42.4692 244.832 42.5892 245.035 42.7031C245.239 42.8171 245.629 42.9819 246.207 43.1975C247.001 43.4864 247.536 43.7773 247.812 44.0703C248.093 44.3633 248.234 44.7315 248.234 45.175ZM254.465 47V42.6726C254.465 42.1274 254.341 41.7205 254.093 41.4519C253.845 41.1833 253.456 41.0491 252.927 41.0491C252.223 41.0491 251.709 41.2403 251.383 41.6228C251.062 42.0053 250.901 42.6319 250.901 43.5027V47H249.888V37.5029H250.901V40.3777C250.901 40.7236 250.885 41.0104 250.852 41.2383H250.913C251.112 40.9168 251.395 40.6646 251.761 40.4814C252.132 40.2943 252.553 40.2007 253.025 40.2007C253.843 40.2007 254.455 40.396 254.862 40.7866C255.273 41.1732 255.479 41.7896 255.479 42.636V47H254.465ZM263.926 47.1221C263.49 47.1221 263.092 47.0427 262.729 46.884C262.371 46.7213 262.07 46.4731 261.826 46.1394H261.753C261.802 46.53 261.826 46.9003 261.826 47.2502V50.0029H260.813V40.3105H261.637L261.777 41.2261H261.826C262.087 40.8599 262.39 40.5954 262.736 40.4326C263.081 40.2699 263.478 40.1885 263.926 40.1885C264.813 40.1885 265.496 40.4916 265.977 41.0979C266.461 41.7042 266.703 42.5546 266.703 43.6492C266.703 44.7478 266.457 45.6023 265.964 46.2126C265.476 46.8189 264.797 47.1221 263.926 47.1221ZM263.779 41.0491C263.096 41.0491 262.601 41.2383 262.296 41.6167C261.991 41.9951 261.834 42.5973 261.826 43.4233V43.6492C261.826 44.5891 261.983 45.2625 262.296 45.6694C262.609 46.0723 263.112 46.2737 263.804 46.2737C264.382 46.2737 264.833 46.0397 265.159 45.5718C265.488 45.1038 265.653 44.4589 265.653 43.637C265.653 42.8028 265.488 42.164 265.159 41.7205C264.833 41.2729 264.373 41.0491 263.779 41.0491ZM271.531 40.1885C271.828 40.1885 272.094 40.2129 272.33 40.2617L272.19 41.2017C271.913 41.1406 271.669 41.1101 271.458 41.1101C270.916 41.1101 270.452 41.3298 270.066 41.7693C269.683 42.2087 269.492 42.756 269.492 43.4111V47H268.479V40.3105H269.315L269.431 41.5496H269.48C269.728 41.1142 270.027 40.7785 270.377 40.5425C270.727 40.3065 271.112 40.1885 271.531 40.1885ZM279.355 43.6492C279.355 44.7397 279.081 45.5921 278.531 46.2065C277.982 46.8169 277.223 47.1221 276.255 47.1221C275.657 47.1221 275.126 46.9817 274.662 46.7009C274.198 46.4202 273.84 46.0173 273.588 45.4924C273.335 44.9675 273.209 44.3531 273.209 43.6492C273.209 42.5587 273.482 41.7103 274.027 41.104C274.572 40.4937 275.329 40.1885 276.298 40.1885C277.233 40.1885 277.976 40.4998 278.525 41.1223C279.079 41.7449 279.355 42.5872 279.355 43.6492ZM274.259 43.6492C274.259 44.5037 274.43 45.1547 274.772 45.6023C275.114 46.0499 275.616 46.2737 276.279 46.2737C276.943 46.2737 277.445 46.0519 277.787 45.6084C278.133 45.1608 278.306 44.5077 278.306 43.6492C278.306 42.7987 278.133 42.1538 277.787 41.7144C277.445 41.2708 276.938 41.0491 276.267 41.0491C275.604 41.0491 275.103 41.2668 274.766 41.7021C274.428 42.1375 274.259 42.7865 274.259 43.6492ZM285.691 46.1028H285.636C285.168 46.7823 284.468 47.1221 283.536 47.1221C282.662 47.1221 281.98 46.823 281.492 46.2249C281.007 45.6267 280.765 44.7763 280.765 43.6736C280.765 42.5709 281.01 41.7144 281.498 41.104C281.986 40.4937 282.666 40.1885 283.536 40.1885C284.444 40.1885 285.14 40.5181 285.624 41.1772H285.703L285.66 40.6951L285.636 40.2251V37.5029H286.649V47H285.825L285.691 46.1028ZM283.665 46.2737C284.356 46.2737 284.857 46.0865 285.166 45.7122C285.479 45.3337 285.636 44.7254 285.636 43.8872V43.6736C285.636 42.7255 285.477 42.05 285.16 41.6472C284.847 41.2403 284.344 41.0369 283.652 41.0369C283.058 41.0369 282.603 41.2688 282.285 41.7327C281.972 42.1925 281.815 42.8435 281.815 43.6858C281.815 44.5403 281.972 45.1852 282.285 45.6206C282.598 46.056 283.058 46.2737 283.665 46.2737ZM289.756 40.3105V44.6501C289.756 45.1954 289.88 45.6023 290.128 45.8708C290.376 46.1394 290.765 46.2737 291.294 46.2737C291.994 46.2737 292.504 46.0824 292.826 45.7C293.151 45.3175 293.314 44.6929 293.314 43.8262V40.3105H294.327V47H293.491L293.345 46.1028H293.29C293.082 46.4324 292.793 46.6847 292.423 46.8596C292.057 47.0346 291.638 47.1221 291.166 47.1221C290.352 47.1221 289.742 46.9288 289.335 46.5422C288.932 46.1557 288.73 45.5372 288.73 44.6868V40.3105H289.756ZM299.155 47.1221C298.187 47.1221 297.436 46.825 296.903 46.231C296.374 45.6328 296.11 44.7885 296.11 43.698C296.11 42.579 296.378 41.7144 296.915 41.104C297.456 40.4937 298.226 40.1885 299.222 40.1885C299.544 40.1885 299.865 40.2231 300.187 40.2922C300.508 40.3614 300.76 40.4428 300.944 40.5364L300.632 41.397C300.409 41.3075 300.164 41.2342 299.9 41.1772C299.635 41.1162 299.401 41.0857 299.198 41.0857C297.839 41.0857 297.159 41.9524 297.159 43.6858C297.159 44.5077 297.324 45.1384 297.654 45.5779C297.987 46.0173 298.48 46.2371 299.131 46.2371C299.688 46.2371 300.26 46.117 300.846 45.877V46.7742C300.398 47.0061 299.835 47.1221 299.155 47.1221ZM304.6 46.2859C304.779 46.2859 304.952 46.2737 305.118 46.2493C305.285 46.2208 305.417 46.1923 305.515 46.1638V46.939C305.405 46.9919 305.243 47.0346 305.027 47.0671C304.815 47.1038 304.624 47.1221 304.453 47.1221C303.159 47.1221 302.512 46.4405 302.512 45.0774V41.0979H301.554V40.6096L302.512 40.1885L302.939 38.7603H303.525V40.3105H305.466V41.0979H303.525V45.0347C303.525 45.4375 303.621 45.7467 303.812 45.9624C304.003 46.1781 304.266 46.2859 304.6 46.2859ZM311.173 45.175C311.173 45.7976 310.941 46.2778 310.477 46.6155C310.013 46.9532 309.362 47.1221 308.524 47.1221C307.637 47.1221 306.945 46.9817 306.449 46.7009V45.761C306.77 45.9237 307.114 46.0519 307.48 46.1455C307.851 46.2391 308.207 46.2859 308.549 46.2859C309.078 46.2859 309.484 46.2025 309.769 46.0356C310.054 45.8647 310.197 45.6064 310.197 45.2605C310.197 45.0001 310.083 44.7783 309.855 44.5952C309.631 44.408 309.191 44.1883 308.536 43.936C307.914 43.7041 307.47 43.5027 307.206 43.3318C306.945 43.1568 306.75 42.9595 306.62 42.7397C306.494 42.52 306.431 42.2576 306.431 41.9524C306.431 41.4071 306.652 40.9779 307.096 40.6646C307.539 40.3472 308.148 40.1885 308.921 40.1885C309.641 40.1885 310.345 40.335 311.033 40.6279L310.673 41.4519C310.001 41.1752 309.393 41.0369 308.848 41.0369C308.368 41.0369 308.005 41.1121 307.761 41.2627C307.517 41.4132 307.395 41.6208 307.395 41.8853C307.395 42.0643 307.44 42.2169 307.529 42.343C307.623 42.4692 307.771 42.5892 307.975 42.7031C308.178 42.8171 308.569 42.9819 309.147 43.1975C309.94 43.4864 310.475 43.7773 310.752 44.0703C311.033 44.3633 311.173 44.7315 311.173 45.175ZM207.664 63.1028H207.609C207.141 63.7823 206.441 64.1221 205.509 64.1221C204.634 64.1221 203.953 63.823 203.464 63.2249C202.98 62.6267 202.738 61.7763 202.738 60.6736C202.738 59.5709 202.982 58.7144 203.47 58.104C203.959 57.4937 204.638 57.1885 205.509 57.1885C206.416 57.1885 207.112 57.5181 207.596 58.1772H207.676L207.633 57.6951L207.609 57.2251V54.5029H208.622V64H207.798L207.664 63.1028ZM205.637 63.2737C206.329 63.2737 206.829 63.0865 207.139 62.7122C207.452 62.3337 207.609 61.7254 207.609 60.8872V60.6736C207.609 59.7255 207.45 59.05 207.133 58.6472C206.819 58.2403 206.317 58.0369 205.625 58.0369C205.031 58.0369 204.575 58.2688 204.258 58.7327C203.944 59.1925 203.788 59.8435 203.788 60.6858C203.788 61.5403 203.944 62.1852 204.258 62.6206C204.571 63.056 205.031 63.2737 205.637 63.2737ZM213.602 64.1221C212.614 64.1221 211.832 63.821 211.259 63.2188C210.689 62.6165 210.404 61.7804 210.404 60.7102C210.404 59.6319 210.669 58.7754 211.198 58.1406C211.731 57.5059 212.445 57.1885 213.34 57.1885C214.178 57.1885 214.841 57.4652 215.33 58.0186C215.818 58.5679 216.062 59.2942 216.062 60.1975V60.8384H211.454C211.474 61.6237 211.672 62.2198 212.046 62.6267C212.424 63.0336 212.955 63.2371 213.639 63.2371C214.359 63.2371 215.071 63.0865 215.775 62.7854V63.6887C215.417 63.8433 215.077 63.9532 214.756 64.0183C214.438 64.0875 214.054 64.1221 213.602 64.1221ZM213.328 58.0369C212.791 58.0369 212.361 58.2118 212.04 58.5618C211.722 58.9117 211.535 59.3959 211.478 60.0144H214.976C214.976 59.3756 214.833 58.8873 214.548 58.5496C214.264 58.2078 213.857 58.0369 213.328 58.0369ZM218.809 64H217.795V54.5029H218.809V64ZM221.97 64H220.957V57.3105H221.97V64ZM220.872 55.4978C220.872 55.2659 220.929 55.097 221.042 54.9912C221.156 54.8813 221.299 54.8264 221.47 54.8264C221.632 54.8264 221.773 54.8813 221.891 54.9912C222.009 55.1011 222.068 55.2699 222.068 55.4978C222.068 55.7257 222.009 55.8966 221.891 56.0105C221.773 56.1204 221.632 56.1753 221.47 56.1753C221.299 56.1753 221.156 56.1204 221.042 56.0105C220.929 55.8966 220.872 55.7257 220.872 55.4978ZM225.583 64L223.044 57.3105H224.131L225.571 61.2778C225.897 62.2056 226.088 62.8078 226.145 63.0845H226.194C226.239 62.8688 226.379 62.4233 226.615 61.7478C226.855 61.0683 227.39 59.5892 228.22 57.3105H229.307L226.768 64H225.583ZM233.207 64.1221C232.218 64.1221 231.437 63.821 230.863 63.2188C230.293 62.6165 230.009 61.7804 230.009 60.7102C230.009 59.6319 230.273 58.7754 230.802 58.1406C231.335 57.5059 232.049 57.1885 232.944 57.1885C233.783 57.1885 234.446 57.4652 234.934 58.0186C235.422 58.5679 235.667 59.2942 235.667 60.1975V60.8384H231.058C231.079 61.6237 231.276 62.2198 231.65 62.6267C232.029 63.0336 232.56 63.2371 233.243 63.2371C233.964 63.2371 234.676 63.0865 235.38 62.7854V63.6887C235.022 63.8433 234.682 63.9532 234.36 64.0183C234.043 64.0875 233.658 64.1221 233.207 64.1221ZM232.932 58.0369C232.395 58.0369 231.966 58.2118 231.644 58.5618C231.327 58.9117 231.14 59.3959 231.083 60.0144H234.58C234.58 59.3756 234.438 58.8873 234.153 58.5496C233.868 58.2078 233.461 58.0369 232.932 58.0369ZM240.452 57.1885C240.749 57.1885 241.015 57.2129 241.251 57.2617L241.111 58.2017C240.834 58.1406 240.59 58.1101 240.378 58.1101C239.837 58.1101 239.373 58.3298 238.987 58.7693C238.604 59.2087 238.413 59.756 238.413 60.4111V64H237.4V57.3105H238.236L238.352 58.5496H238.401C238.649 58.1142 238.948 57.7785 239.298 57.5425C239.648 57.3065 240.033 57.1885 240.452 57.1885ZM245.328 64.1221C244.34 64.1221 243.558 63.821 242.985 63.2188C242.415 62.6165 242.13 61.7804 242.13 60.7102C242.13 59.6319 242.395 58.7754 242.924 58.1406C243.457 57.5059 244.171 57.1885 245.066 57.1885C245.904 57.1885 246.567 57.4652 247.056 58.0186C247.544 58.5679 247.788 59.2942 247.788 60.1975V60.8384H243.18C243.2 61.6237 243.398 62.2198 243.772 62.6267C244.15 63.0336 244.681 63.2371 245.365 63.2371C246.085 63.2371 246.797 63.0865 247.501 62.7854V63.6887C247.143 63.8433 246.803 63.9532 246.482 64.0183C246.165 64.0875 245.78 64.1221 245.328 64.1221ZM245.054 58.0369C244.517 58.0369 244.087 58.2118 243.766 58.5618C243.448 58.9117 243.261 59.3959 243.204 60.0144H246.702C246.702 59.3756 246.559 58.8873 246.274 58.5496C245.99 58.2078 245.583 58.0369 245.054 58.0369ZM254.075 63.1028H254.02C253.552 63.7823 252.852 64.1221 251.92 64.1221C251.045 64.1221 250.364 63.823 249.875 63.2249C249.391 62.6267 249.149 61.7763 249.149 60.6736C249.149 59.5709 249.393 58.7144 249.882 58.104C250.37 57.4937 251.049 57.1885 251.92 57.1885C252.828 57.1885 253.523 57.5181 254.008 58.1772H254.087L254.044 57.6951L254.02 57.2251V54.5029H255.033V64H254.209L254.075 63.1028ZM252.048 63.2737C252.74 63.2737 253.241 63.0865 253.55 62.7122C253.863 62.3337 254.02 61.7254 254.02 60.8872V60.6736C254.02 59.7255 253.861 59.05 253.544 58.6472C253.23 58.2403 252.728 58.0369 252.036 58.0369C251.442 58.0369 250.986 58.2688 250.669 58.7327C250.356 59.1925 250.199 59.8435 250.199 60.6858C250.199 61.5403 250.356 62.1852 250.669 62.6206C250.982 63.056 251.442 63.2737 252.048 63.2737ZM261.448 64H260.435V57.3105H261.448V64ZM260.349 55.4978C260.349 55.2659 260.406 55.097 260.52 54.9912C260.634 54.8813 260.776 54.8264 260.947 54.8264C261.11 54.8264 261.25 54.8813 261.368 54.9912C261.486 55.1011 261.545 55.2699 261.545 55.4978C261.545 55.7257 261.486 55.8966 261.368 56.0105C261.25 56.1204 261.11 56.1753 260.947 56.1753C260.776 56.1753 260.634 56.1204 260.52 56.0105C260.406 55.8966 260.349 55.7257 260.349 55.4978ZM268.174 64V59.6726C268.174 59.1274 268.05 58.7205 267.802 58.4519C267.553 58.1833 267.165 58.0491 266.636 58.0491C265.936 58.0491 265.423 58.2383 265.098 58.6167C264.772 58.9951 264.609 59.6197 264.609 60.4905V64H263.596V57.3105H264.42L264.585 58.2261H264.634C264.841 57.8965 265.132 57.6422 265.507 57.4631C265.881 57.28 266.298 57.1885 266.758 57.1885C267.563 57.1885 268.17 57.3838 268.577 57.7744C268.984 58.161 269.187 58.7815 269.187 59.636V64H268.174ZM278.635 64L278.434 63.0479H278.385C278.051 63.467 277.718 63.7518 277.384 63.9023C277.054 64.0488 276.641 64.1221 276.145 64.1221C275.482 64.1221 274.961 63.9512 274.583 63.6094C274.208 63.2676 274.021 62.7813 274.021 62.1506C274.021 60.7997 275.101 60.0917 277.262 60.0266L278.397 59.99V59.575C278.397 59.05 278.283 58.6635 278.055 58.4153C277.832 58.163 277.472 58.0369 276.975 58.0369C276.418 58.0369 275.787 58.2078 275.083 58.5496L274.772 57.7744C275.101 57.5954 275.461 57.455 275.852 57.3533C276.247 57.2515 276.641 57.2007 277.036 57.2007C277.834 57.2007 278.424 57.3777 278.806 57.7317C279.193 58.0857 279.386 58.6533 279.386 59.4346V64H278.635ZM276.346 63.2859C276.977 63.2859 277.472 63.113 277.83 62.7671C278.192 62.4212 278.373 61.937 278.373 61.3145V60.7102L277.36 60.7529C276.554 60.7814 275.972 60.9076 275.614 61.1313C275.26 61.3511 275.083 61.6949 275.083 62.1628C275.083 62.5291 275.193 62.8078 275.413 62.999C275.636 63.1903 275.948 63.2859 276.346 63.2859ZM287.742 58.0979H286.039V64H285.026V58.0979H283.829V57.6401L285.026 57.2739V56.9016C285.026 55.2577 285.744 54.4358 287.18 54.4358C287.534 54.4358 287.949 54.507 288.425 54.6494L288.163 55.4612C287.772 55.335 287.439 55.272 287.162 55.272C286.779 55.272 286.497 55.4001 286.313 55.6565C286.13 55.9088 286.039 56.3157 286.039 56.8772V57.3105H287.742V58.0979ZM289.976 64H288.962V54.5029H289.976V64ZM296.238 64L296.036 63.0479H295.988C295.654 63.467 295.32 63.7518 294.987 63.9023C294.657 64.0488 294.244 64.1221 293.748 64.1221C293.084 64.1221 292.563 63.9512 292.185 63.6094C291.811 63.2676 291.624 62.7813 291.624 62.1506C291.624 60.7997 292.704 60.0917 294.865 60.0266L296 59.99V59.575C296 59.05 295.886 58.6635 295.658 58.4153C295.434 58.163 295.074 58.0369 294.578 58.0369C294.02 58.0369 293.389 58.2078 292.686 58.5496L292.374 57.7744C292.704 57.5954 293.064 57.455 293.455 57.3533C293.849 57.2515 294.244 57.2007 294.639 57.2007C295.436 57.2007 296.026 57.3777 296.409 57.7317C296.795 58.0857 296.989 58.6533 296.989 59.4346V64H296.238ZM293.949 63.2859C294.58 63.2859 295.074 63.113 295.432 62.7671C295.794 62.4212 295.975 61.937 295.975 61.3145V60.7102L294.962 60.7529C294.156 60.7814 293.575 60.9076 293.217 61.1313C292.863 61.3511 292.686 61.6949 292.686 62.1628C292.686 62.5291 292.795 62.8078 293.015 62.999C293.239 63.1903 293.55 63.2859 293.949 63.2859ZM303.397 62.175C303.397 62.7976 303.165 63.2778 302.701 63.6155C302.238 63.9532 301.587 64.1221 300.748 64.1221C299.861 64.1221 299.17 63.9817 298.673 63.7009V62.761C298.995 62.9237 299.338 63.0519 299.705 63.1455C300.075 63.2391 300.431 63.2859 300.773 63.2859C301.302 63.2859 301.709 63.2025 301.993 63.0356C302.278 62.8647 302.421 62.6064 302.421 62.2605C302.421 62.0001 302.307 61.7783 302.079 61.5952C301.855 61.408 301.416 61.1883 300.76 60.936C300.138 60.7041 299.694 60.5027 299.43 60.3318C299.17 60.1568 298.974 59.9595 298.844 59.7397C298.718 59.52 298.655 59.2576 298.655 58.9524C298.655 58.4071 298.877 57.9779 299.32 57.6646C299.764 57.3472 300.372 57.1885 301.145 57.1885C301.865 57.1885 302.569 57.335 303.257 57.6279L302.897 58.4519C302.225 58.1752 301.617 58.0369 301.072 58.0369C300.592 58.0369 300.229 58.1121 299.985 58.2627C299.741 58.4132 299.619 58.6208 299.619 58.8853C299.619 59.0643 299.664 59.2169 299.753 59.343C299.847 59.4692 299.996 59.5892 300.199 59.7031C300.402 59.8171 300.793 59.9819 301.371 60.1975C302.164 60.4864 302.699 60.7773 302.976 61.0703C303.257 61.3633 303.397 61.7315 303.397 62.175ZM309.629 64V59.6726C309.629 59.1274 309.505 58.7205 309.257 58.4519C309.008 58.1833 308.62 58.0491 308.091 58.0491C307.387 58.0491 306.872 58.2403 306.547 58.6228C306.225 59.0053 306.064 59.6319 306.064 60.5027V64H305.051V54.5029H306.064V57.3777C306.064 57.7236 306.048 58.0104 306.016 58.2383H306.077C306.276 57.9168 306.559 57.6646 306.925 57.4814C307.295 57.2943 307.716 57.2007 308.188 57.2007C309.006 57.2007 309.619 57.396 310.026 57.7866C310.437 58.1732 310.642 58.7896 310.642 59.636V64H309.629ZM313.645 61.5403H313.004L312.693 55.0767H313.956L313.645 61.5403ZM312.583 63.353C312.583 62.7996 312.827 62.5229 313.315 62.5229C313.551 62.5229 313.733 62.5942 313.859 62.7366C313.989 62.879 314.054 63.0845 314.054 63.353C314.054 63.6134 313.989 63.8169 313.859 63.9634C313.728 64.1058 313.547 64.177 313.315 64.177C313.104 64.177 312.929 64.1139 312.791 63.9878C312.652 63.8576 312.583 63.646 312.583 63.353Z" fill="black"/>
<defs>
<linearGradient id="paint0_linear" x1="166.5" y1="0" x2="166.5" y2="124" gradientUnits="userSpaceOnUse">
<stop stop-color="#EDF5E0"/>
<stop offset="1" stop-color="#A4CF70"/>
</linearGradient>
<linearGradient id="paint1_linear" x1="194.545" y1="100.107" x2="191.999" y2="104.442" gradientUnits="userSpaceOnUse">
<stop stop-color="#64AF44" stop-opacity="0.9"/>
<stop offset="0.5" stop-color="#57AD44" stop-opacity="0.94"/>
<stop offset="1" stop-color="#42A944"/>
</linearGradient>
<linearGradient id="paint2_linear" x1="2447.37" y1="4946.39" x2="1935.07" y2="5709.83" gradientUnits="userSpaceOnUse">
<stop stop-color="#64AF44" stop-opacity="0.9"/>
<stop offset="0.5" stop-color="#57AD44" stop-opacity="0.94"/>
<stop offset="1" stop-color="#42A944"/>
</linearGradient>
<linearGradient id="paint3_linear" x1="202.534" y1="101.535" x2="205.838" y2="102.541" gradientUnits="userSpaceOnUse">
<stop stop-color="#7DBB3F" stop-opacity="0.9"/>
<stop offset="0.4" stop-color="#86BE40" stop-opacity="0.9"/>
<stop offset="1" stop-color="#8EC140" stop-opacity="0.9"/>
</linearGradient>
<linearGradient id="paint4_linear" x1="203.708" y1="99.4386" x2="206.485" y2="100.755" gradientUnits="userSpaceOnUse">
<stop stop-color="#7DBB3F" stop-opacity="0.9"/>
<stop offset="0.33" stop-color="#84BD3F" stop-opacity="0.9"/>
<stop offset="1" stop-color="#8EC140" stop-opacity="0.9"/>
</linearGradient>
<linearGradient id="paint5_linear" x1="201.381" y1="85.9573" x2="195.443" y2="92.6603" gradientUnits="userSpaceOnUse">
<stop stop-color="#7DBB3F" stop-opacity="0.9"/>
<stop offset="1" stop-color="#8EC140" stop-opacity="0.9"/>
</linearGradient>
<linearGradient id="paint6_linear" x1="6904.12" y1="1489.87" x2="5834.4" y2="2539.02" gradientUnits="userSpaceOnUse">
<stop stop-color="#7DBB3F" stop-opacity="0.9"/>
<stop offset="1" stop-color="#8EC140" stop-opacity="0.9"/>
</linearGradient>
<linearGradient id="paint7_linear" x1="188.579" y1="87.0669" x2="189.39" y2="93.6399" gradientUnits="userSpaceOnUse">
<stop stop-color="#75B643" stop-opacity="0.9"/>
<stop offset="0.57" stop-color="#6DB145" stop-opacity="0.94"/>
<stop offset="1" stop-color="#60A849"/>
</linearGradient>
<linearGradient id="paint8_linear" x1="190.007" y1="88.1131" x2="191.115" y2="94.5764" gradientUnits="userSpaceOnUse">
<stop stop-color="#75B643" stop-opacity="0.9"/>
<stop offset="0.8" stop-color="#65AC47" stop-opacity="0.97"/>
<stop offset="1" stop-color="#60A849"/>
</linearGradient>
<linearGradient id="paint9_linear" x1="190.573" y1="98.0803" x2="186.754" y2="98.885" gradientUnits="userSpaceOnUse">
<stop stop-color="#68B245" stop-opacity="0.9"/>
<stop offset="0.81" stop-color="#4EA948" stop-opacity="0.98"/>
<stop offset="1" stop-color="#47A749"/>
</linearGradient>
<linearGradient id="paint10_linear" x1="190.807" y1="95.0702" x2="185.721" y2="95.9495" gradientUnits="userSpaceOnUse">
<stop stop-color="#68B245" stop-opacity="0.9"/>
<stop offset="0.47" stop-color="#5DAE46" stop-opacity="0.93"/>
<stop offset="1" stop-color="#47A749"/>
</linearGradient>
<linearGradient id="paint11_linear" x1="50.6171" y1="86.0897" x2="-4.09498" y2="100.195" gradientUnits="userSpaceOnUse">
<stop offset="0.01" stop-color="#B0BD24"/>
<stop offset="1" stop-color="#467550"/>
</linearGradient>
<linearGradient id="paint12_linear" x1="87.8514" y1="61.3044" x2="58.8787" y2="110.655" gradientUnits="userSpaceOnUse">
<stop stop-color="#9E9A34"/>
<stop offset="1" stop-color="#3D6A6E"/>
</linearGradient>
<linearGradient id="paint13_linear" x1="76850.1" y1="24207.1" x2="64391.3" y2="37088.8" gradientUnits="userSpaceOnUse">
<stop offset="0.01" stop-color="#B0BD24"/>
<stop offset="1" stop-color="#467550"/>
</linearGradient>
<linearGradient id="paint14_linear" x1="65.9294" y1="76.264" x2="80.9618" y2="81.5162" gradientUnits="userSpaceOnUse">
<stop stop-color="#3076A1"/>
<stop offset="1" stop-color="#639C38"/>
</linearGradient>
<linearGradient id="paint15_linear" x1="113796" y1="2936.86" x2="125162" y2="2936.86" gradientUnits="userSpaceOnUse">
<stop stop-color="#3076A1"/>
<stop offset="1" stop-color="#639C38"/>
</linearGradient>
<linearGradient id="paint16_linear" x1="47618.3" y1="4651.96" x2="50827.1" y2="4651.96" gradientUnits="userSpaceOnUse">
<stop stop-color="#3076A1"/>
<stop offset="1" stop-color="#639C38"/>
</linearGradient>
<linearGradient id="paint17_linear" x1="48408.1" y1="58976" x2="49389.4" y2="54522" gradientUnits="userSpaceOnUse">
<stop stop-color="#3076A1"/>
<stop offset="1" stop-color="#639C38"/>
</linearGradient>
<linearGradient id="paint18_linear" x1="56401.1" y1="13104.8" x2="60115" y2="13104.8" gradientUnits="userSpaceOnUse">
<stop stop-color="#3076A1"/>
<stop offset="1" stop-color="#639C38"/>
</linearGradient>
<linearGradient id="paint19_linear" x1="111480" y1="8503.86" x2="122846" y2="8503.86" gradientUnits="userSpaceOnUse">
<stop stop-color="#3076A1"/>
<stop offset="1" stop-color="#639C38"/>
</linearGradient>
<linearGradient id="paint20_linear" x1="46588.3" y1="13377.7" x2="49796.9" y2="13377.7" gradientUnits="userSpaceOnUse">
<stop stop-color="#3076A1"/>
<stop offset="1" stop-color="#639C38"/>
</linearGradient>
<linearGradient id="paint21_linear" x1="44811.6" y1="64422.2" x2="45792.8" y2="59968.5" gradientUnits="userSpaceOnUse">
<stop stop-color="#3076A1"/>
<stop offset="1" stop-color="#639C38"/>
</linearGradient>
<linearGradient id="paint22_linear" x1="26933.2" y1="49101.4" x2="107945" y2="-8032.96" gradientUnits="userSpaceOnUse">
<stop stop-color="#3076A1"/>
<stop offset="1" stop-color="#639C38"/>
</linearGradient>
<linearGradient id="paint23_linear" x1="95.9003" y1="57.4558" x2="93.653" y2="56.9216" gradientUnits="userSpaceOnUse">
<stop stop-color="#EB4747"/>
<stop offset="1" stop-color="#EB7947"/>
</linearGradient>
<linearGradient id="paint24_linear" x1="110.314" y1="68.3347" x2="112.83" y2="74.6753" gradientUnits="userSpaceOnUse">
<stop stop-color="#FACE87"/>
<stop offset="1" stop-color="#FABA52"/>
</linearGradient>
<linearGradient id="paint25_linear" x1="31.6753" y1="26.4674" x2="47.9093" y2="26.439" gradientUnits="userSpaceOnUse">
<stop stop-color="#4F8D62"/>
<stop offset="1" stop-color="#639C38"/>
</linearGradient>
<clipPath id="clip0">
<rect x="1" y="17" width="158" height="107" fill="white"/>
</clipPath>
</defs>
</svg>
