<svg height="512pt" viewBox="-20 0 512 512" width="512pt" xmlns="http://www.w3.org/2000/svg"><path d="m399.089844 53.199219v33.5625c0 31.78125 11.128906 62.5625 31.457031 86.996093 20.324219 24.433594 31.453125 55.210938 31.453125 86.996094v212.097656c0 16.097657-13.050781 29.148438-29.148438 29.148438h-161.703124c-16.097657 0-29.148438-13.050781-29.148438-29.148438v-212.097656c0-31.785156 11.128906-62.5625 31.453125-86.996094 20.328125-24.433593 31.453125-55.210937 31.453125-86.996093v-33.5625zm0 0" fill="#dff6fc"/><path d="m462 283.519531-3.332031-23.609375c-29.351563 29.71875-77.324219 29.722656-106.675781.003906l-.011719-.015624c-29.339844-29.707032-77.292969-29.71875-106.644531-.027344l-3.335938 2.855468v210.125c0 16.097657 13.050781 29.148438 29.148438 29.148438h161.703124c16.097657 0 29.148438-13.050781 29.148438-29.148438zm0 0" fill="#fff"/><path d="m10 337.109375h280v164.890625h-280zm0 0" fill="#ffd89e"/><path d="m10 337.109375 198.710938-81.109375 6.382812.472656c42.234375 3.117188 74.90625 38.289063 74.90625 80.636719zm0 0" fill="#ffcb7c"/><path d="m201.769531 260.351562c5.933594 14.277344-.832031 30.664063-15.113281 36.597657-14.277344 5.933593-30.667969-.832031-36.597656-15.113281zm0 0" fill="#ff9d6c"/><path d="m396.332031 10h-88.667969c-11.042968 0-20 8.953125-20 20s8.957032 20 20 20h88.667969c11.046875 0 20-8.953125 20-20s-8.953125-20-20-20zm0 0" fill="#cff1fb"/><g fill="#ff9d6c"><path d="m10 382.25c17.535156 0 31.75 14.214844 31.75 31.75s-14.214844 31.75-31.75 31.75zm0 0"/><path d="m135.378906 474c0 15.464844-12.535156 28-28 28s-28-12.535156-28-28 12.535156-28 28-28 28 12.535156 28 28zm0 0"/><path d="m196.988281 393.109375c0 11.046875-8.953125 20-20 20s-20-8.953125-20-20 8.953125-20 20-20 20 8.953125 20 20zm0 0"/><path d="m248.128906 482c0 11.046875-8.953125 20-20 20s-20-8.953125-20-20 8.953125-20 20-20 20 8.953125 20 20zm0 0"/></g><path d="m438.234375 167.359375c-18.792969-22.589844-29.144531-51.214844-29.144531-80.597656v-29.617188c10.179687-4.804687 17.242187-15.164062 17.242187-27.144531 0-16.542969-13.457031-30-30-30h-88.667969c-16.539062 0-30 13.457031-30 30 0 11.980469 7.066407 22.339844 17.242188 27.144531v29.617188c0 29.386719-10.347656 58.011719-29.140625 80.601562-19.320313 23.226563-30.933594 51.957031-33.304687 81.925781-5.402344-1.429687-10.964844-2.371093-16.628907-2.789062l-6.386719-.472656c-1.535156-.113282-3.085937.132812-4.515624.714844l-198.707032 81.109374v.003907c-3.648437 1.488281-6.222656 5.070312-6.222656 9.253906v164.890625c0 5.523438 4.476562 10 10 10h422.851562c21.585938 0 39.148438-17.5625 39.148438-39.148438v-65.476562c0-5.519531-4.476562-10-10-10s-10 4.480469-10 10v65.476562c0 10.558594-8.589844 19.148438-19.148438 19.148438h-132.851562v-154.890625c0-23.015625-8.625-44.976563-24.289062-61.835937-5.039063-5.425782-10.664063-10.152344-16.734376-14.140626 11.3125-8.761718 25.109376-13.523437 39.664063-13.523437h.019531c17.5.007813 33.910156 6.867187 46.21875 19.328125 16.085938 16.292969 37.554688 25.261719 60.449219 25.261719 16.859375 0 32.9375-4.878907 46.671875-13.949219v49.125c0 5.523438 4.476562 10 10 10s10-4.476562 10-10v-66.625c0-34.046875-11.992188-67.214844-33.765625-93.390625zm-130.566406-147.359375h88.667969c5.511718 0 10 4.484375 10 10s-4.488282 10-10 10h-88.667969c-5.515625 0-10-4.484375-10-10s4.484375-10 10-10zm-113.835938 252.875c-.175781 1.726562-.601562 3.4375-1.28125 5.089844-1.835937 4.441406-5.292969 7.90625-9.730469 9.75-4.441406 1.847656-9.335937 1.851562-13.777343.015625-1.722657-.707031-3.289063-1.667969-4.679688-2.828125zm-173.832031 121.820312c6.972656 3.625 11.75 10.917969 11.75 19.304688s-4.777344 15.679688-11.75 19.304688zm0 59.835938c18.207031-4.492188 31.75-20.957031 31.75-40.53125s-13.542969-36.039062-31.75-40.53125v-26.359375h260v144.890625h-23.589844c1.109375-3.128906 1.71875-6.492188 1.71875-10 0-16.542969-13.457031-30-30-30-16.542968 0-30 13.457031-30 30 0 3.507812.609375 6.871094 1.71875 10h-59.011718c2.894531-5.359375 4.542968-11.492188 4.542968-18 0-20.953125-17.046875-38-38-38s-38 17.046875-38 38c0 6.507812 1.644532 12.640625 4.542969 18h-53.921875zm198.128906 27.46875c0-5.515625 4.484375-10 10-10s10 4.484375 10 10-4.484375 10-10 10-10-4.484375-10-10zm-128.75-8c0-9.925781 8.074219-18 18-18 9.925782 0 18 8.074219 18 18s-8.074218 18-18 18c-9.925781 0-18-8.074219-18-18zm189.902344-146.890625h-218.320312l83.824218-34.214844c4.113282 5.894531 9.820313 10.511719 16.625 13.320313 4.679688 1.933594 9.589844 2.898437 14.503906 2.898437 4.9375 0 9.878907-.976562 14.578126-2.929687 9.375-3.894532 16.667968-11.207032 20.542968-20.585938 2.550782-6.175781 3.40625-12.757812 2.589844-19.210937l.734375.054687c33.425781 2.46875 60.273437 28.300782 64.921875 60.667969zm126.046875-54.910156c-17.503906 0-33.917969-6.859375-46.234375-19.328125-16.082031-16.28125-37.542969-25.253906-60.429688-25.261719-.007812 0-.015624 0-.023437 0-16.171875 0-31.625 4.5-44.984375 12.875 3.609375-22.078125 13.054688-42.984375 27.488281-60.332031 21.773438-26.175782 33.765625-59.34375 33.765625-93.390625v-26.761719h74.183594v26.761719c0 34.050781 11.992188 67.214843 33.765625 93.390625 17.074219 20.527344 27.175781 46.03125 28.882813 72.5625-.0625.058594-.128907.109375-.1875.171875-12.304688 12.453125-28.71875 19.3125-46.226563 19.3125zm0 0"/><path d="m176.988281 423.109375c16.542969 0 30-13.457031 30-30s-13.457031-30-30-30-30 13.457031-30 30 13.457031 30 30 30zm0-40c5.515625 0 10 4.484375 10 10 0 5.511719-4.484375 10-10 10s-10-4.488281-10-10c0-5.515625 4.484375-10 10-10zm0 0"/><path d="m107.378906 403.109375c2.632813 0 5.199219-1.070313 7.070313-2.929687 1.859375-1.859376 2.929687-4.441407 2.929687-7.070313s-1.070312-5.210937-2.929687-7.070313c-1.859375-1.859374-4.4375-2.929687-7.070313-2.929687-2.628906 0-5.207031 1.070313-7.070312 2.929687-1.859375 1.859376-2.929688 4.441407-2.929688 7.070313s1.070313 5.210937 2.929688 7.070313c1.863281 1.859374 4.441406 2.929687 7.070312 2.929687zm0 0"/><path d="m253 423.109375c2.628906 0 5.210938-1.070313 7.070312-2.929687 1.859376-1.863282 2.929688-4.441407 2.929688-7.070313s-1.070312-5.210937-2.929688-7.070313c-1.859374-1.859374-4.441406-2.929687-7.070312-2.929687s-5.210938 1.070313-7.070312 2.929687c-1.859376 1.859376-2.929688 4.441407-2.929688 7.070313s1.070312 5.210937 2.929688 7.070313c1.859374 1.859374 4.441406 2.929687 7.070312 2.929687zm0 0"/><path d="m462 357.378906c-2.628906 0-5.210938 1.0625-7.070312 2.921875-1.859376 1.871094-2.929688 4.4375-2.929688 7.078125 0 2.632813 1.070312 5.199219 2.929688 7.070313 1.859374 1.859375 4.441406 2.929687 7.070312 2.929687s5.210938-1.070312 7.070312-2.929687c1.859376-1.871094 2.929688-4.4375 2.929688-7.070313 0-2.640625-1.070312-5.207031-2.929688-7.078125-1.859374-1.863281-4.441406-2.921875-7.070312-2.921875zm0 0"/></svg>