<svg id="Layer_3" enable-background="new 0 0 64 64" height="512" viewBox="0 0 64 64" width="512" xmlns="http://www.w3.org/2000/svg"><g><path d="m9 12h53v33h-5c-1.105 0-2 .895-2 2 0 1.105.895 2 2 2h2v4h-8v-3.5c0-.828-.672-1.5-1.5-1.5-.828 0-1.5.672-1.5 1.5v3.5h-20v-3.5c0-.828-.672-1.5-1.5-1.5-.828 0-1.5.672-1.5 1.5v3.5h-6v-4.5c0-.828-.672-1.5-1.5-1.5-.828 0-1.5.672-1.5 1.5v2.5h-7" fill="#59ac98"/><path d="m28 19h30v22h-30z" fill="#c1c8d1"/><circle cx="43" cy="30" fill="#a8b0bc" r="8"/><path d="m48.092 49h-20.184c.056.157.092.324.092.5v3.5h20v-3.5c0-.176.036-.343.092-.5z" fill="#f7d881"/><path d="m5 54h4v-44h-7v4h3z" fill="#e7e4dd"/><g><path d="m12.499 48.998c-.827 0-1.5-.673-1.5-1.499 0-.827.673-1.5 1.5-1.5.826 0 1.499.673 1.499 1.5 0 .826-.673 1.499-1.499 1.499zm0-1.999c-.276 0-.5.224-.5.5 0 .275.224.499.5.499.275 0 .499-.224.499-.499 0-.276-.224-.5-.499-.5z" fill="#243242"/></g><path d="m51 30c0-.34-.028-.672-.069-1.001h-4.072c-.363-1.401-1.459-2.496-2.86-2.858l.001-4.072c-.329-.041-.661-.069-1-.069s-.672.028-1 .069l-.001 4.073c-1.4.363-2.494 1.457-2.857 2.857h-4.072c-.042.329-.07.661-.07 1.001 0 .339.028.67.069.998h4.072c.362 1.401 1.457 2.497 2.858 2.86l.001 4.073c.328.041.661.069 1 .069s.671-.028 1-.069l-.001-4.072c1.402-.363 2.498-1.459 2.861-2.861h4.072c.04-.328.068-.659.068-.998z" fill="#758190"/><path d="m28 34h-4v4h4" fill="#e7e4dd"/><path d="m28 19h-4v4h4" fill="#e7e4dd"/><g><path d="m24.499 42.998c-.827 0-1.5-.673-1.5-1.499 0-.827.673-1.5 1.5-1.5.826 0 1.499.673 1.499 1.5 0 .826-.673 1.499-1.499 1.499zm0-1.999c-.276 0-.5.224-.5.5 0 .275.224.499.5.499.275 0 .499-.224.499-.499 0-.276-.224-.5-.499-.5z" fill="#243242"/></g><g><path d="m24.499 31.998c-.827 0-1.5-.673-1.5-1.499 0-.827.673-1.5 1.5-1.5.826 0 1.499.673 1.499 1.5 0 .826-.673 1.499-1.499 1.499zm0-1.999c-.276 0-.5.224-.5.5 0 .275.224.499.5.499.275 0 .499-.224.499-.499 0-.276-.224-.5-.499-.5z" fill="#243242"/></g><g><path d="m24.499 27.998c-.827 0-1.5-.673-1.5-1.499 0-.827.673-1.5 1.5-1.5.826 0 1.499.673 1.499 1.5 0 .826-.673 1.499-1.499 1.499zm0-1.999c-.276 0-.5.224-.5.5 0 .275.224.499.5.499.275 0 .499-.224.499-.499 0-.276-.224-.5-.499-.5z" fill="#243242"/></g><g><path d="m20.5 27.998c-.827 0-1.5-.673-1.5-1.499 0-.827.673-1.5 1.5-1.5.826 0 1.499.673 1.499 1.5 0 .826-.673 1.499-1.499 1.499zm0-1.999c-.276 0-.5.224-.5.5 0 .275.224.499.5.499.275 0 .499-.224.499-.499 0-.276-.224-.5-.499-.5z" fill="#243242"/></g><g><path d="m13.5 20.998c-.827 0-1.5-.673-1.5-1.499 0-.827.673-1.5 1.5-1.5.826 0 1.499.673 1.499 1.5 0 .826-.673 1.499-1.499 1.499zm0-1.999c-.276 0-.5.224-.5.5 0 .275.224.499.5.499.275 0 .499-.224.499-.499 0-.276-.224-.5-.499-.5z" fill="#243242"/></g><g><path d="m32.5 16.998c-.827 0-1.5-.673-1.5-1.499 0-.827.673-1.5 1.5-1.5.826 0 1.499.673 1.499 1.5 0 .826-.673 1.499-1.499 1.499zm0-1.999c-.276 0-.5.224-.5.5 0 .275.224.499.5.499.275 0 .499-.224.499-.499 0-.276-.224-.5-.499-.5z" fill="#243242"/></g><g><path d="m20.5 31.998c-.827 0-1.5-.673-1.5-1.499 0-.827.673-1.5 1.5-1.5.826 0 1.499.673 1.499 1.5 0 .826-.673 1.499-1.499 1.499zm0-1.999c-.276 0-.5.224-.5.5 0 .275.224.499.5.499.275 0 .499-.224.499-.499 0-.276-.224-.5-.499-.5z" fill="#243242"/></g><path d="m17 19h4v4h-4z" fill="#f7d881"/><path d="m37 19v-4h4v4" fill="#f7d881"/><g><path d="m31 48.999h1.999v3.999h-1.999z" fill="#e39854"/></g><g><path d="m35 48.999h1.999v3.999h-1.999z" fill="#e39854"/></g><g><path d="m39 48.999h1.999v3.999h-1.999z" fill="#e39854"/></g><g><path d="m43 48.999h1.999v3.999h-1.999z" fill="#e39854"/></g><path d="m9 23h4v21h-4" fill="#f7d881"/><g><path d="m8.999 25.999h3.999v1.999h-3.999z" fill="#e39854"/></g><g><path d="m8.999 29.999h3.999v1.999h-3.999z" fill="#e39854"/></g><g><path d="m8.999 33.999h3.999v1.999h-3.999z" fill="#e39854"/></g><g><path d="m8.999 37.999h3.999v1.999h-3.999z" fill="#e39854"/></g><g><path d="m1.999 16.999h2.999v1.999h-2.999z" fill="#d5cec2"/></g><g><path d="m1.999 22.999h2.999v1.999h-2.999z" fill="#d5cec2"/></g><g><path d="m1.999 28.999h2.999v1.999h-2.999z" fill="#d5cec2"/></g><g><path d="m1.999 34.999h2.999v1.999h-2.999z" fill="#d5cec2"/></g><g><path d="m1.999 40.999h2.999v1.999h-2.999z" fill="#d5cec2"/></g><g><path d="m1.999 46.999h2.999v1.999h-2.999z" fill="#d5cec2"/></g><g><path d="m28.999 43.999h17.999v1.999h-17.999z" fill="#4d5d7a"/></g><g><path d="m11.999 13.999h15.999v1.999h-15.999z" fill="#4d5d7a"/></g><g><path d="m58.499 16.998c-.827 0-1.5-.673-1.5-1.499 0-.827.673-1.5 1.5-1.5.826 0 1.499.673 1.499 1.5 0 .826-.673 1.499-1.499 1.499zm0-1.999c-.276 0-.5.224-.5.5 0 .275.224.499.5.499.275 0 .499-.224.499-.499 0-.276-.224-.5-.499-.5z" fill="#243242"/></g><g><path d="m62.707 11.292c-.187-.188-.442-.292-.707-.292h-52.001v-1c0-.553-.447-1-1-1h-6.999c-.553 0-1 .447-1 1v4c0 .552.447 1 1 1h2v1.999h-2.001v1.999h2.001v4.001h-2.001v1.999h2.001v4.001h-2.001v1.999h2.001v4.001h-2.001v1.999h2.001v4.001h-2.001v1.999h2.001v4.001h-2.001v1.999h2.001v5c0 .553.447 1 1 1h3.999c.553 0 1-.447 1-1v-2l6 .001c0 .001 0 0 .001 0 .265 0 .52-.104.707-.292s.293-.442.293-.708v-2.501c0-.274.224-.499.5-.499.274 0 .499.225.499.5l.001 4.501c0 .552.447.999 1 .999h6c.552 0 1-.447 1-1v-3.501c0-.274.224-.499.5-.499.274 0 .499.225.499.5l.001 3.501c0 .552.447.999 1 .999h19.998c.553 0 1-.447 1-.999l.002-3.502c0-.18.091-.299.146-.354.055-.054.173-.146.354-.146h.001c.275 0 .5.225.5.499l-.002 3.501c0 .266.105.52.293.707.188.188.442.293.707.293h8.001c.552 0 1-.447 1-1v-4c0-.552-.448-1-1-1h-2.002c-.551 0-1-.448-1-1.001 0-.551.449-.999 1-.999h5c.553 0 1-.447 1-.999l.002-32.999c0-.266-.105-.521-.293-.708zm-50.709 26.707h-1.999v-2.001h1.999zm0 1.999v3h-1.999v-3zm0-5.999h-1.999v-2.001h1.999zm0-4h-1.999v-2.001h1.999zm0-4h-1.999v-2h1.999zm-3.999 26.999h-2v-38.998c0-.553-.447-1-.999-1h-2v-2h4.999zm21-3h2.001v2.001h-2.001zm14.001 0v2.001h-2.001v-2.001zm-4 2.001h-2.001v-2.001h2.001zm-4 0h-2.001v-2.001h2.001zm9.999 0v-2.001h2.001l-.001 2.001zm16-8h-4.001c-1.653 0-3 1.347-3 3 0 1.654 1.347 3 3 3h1.002v2h-6.001l.001-2.501c0-1.378-1.122-2.499-2.5-2.499-.001 0-.002 0-.003 0-.667 0-1.293.26-1.765.73-.083.083-.152.177-.222.27h-19.024c-.457-.603-1.174-1-1.987-1-1.379 0-2.499 1.121-2.499 2.499v2.501h-4.001v-3.501c0-1.378-1.122-2.499-2.5-2.499-1.379 0-2.499 1.121-2.499 2.499v1.501l-5.001-.001v-5h2.999c.553 0 1-.447 1-1v-20.999c0-.553-.447-1-1-1h-2.999v-8.999h51z"/><path d="m12.499 45.999c-.827 0-1.5.673-1.5 1.5 0 .826.673 1.499 1.5 1.499.826 0 1.499-.673 1.499-1.499 0-.827-.673-1.5-1.499-1.5z"/><path d="m27.998 18h-3.999c-.553 0-1 .447-1 1v3.999c0 .553.447 1 1 1h3.001v9h-3.001c-.553 0-1 .447-1 1v3.999c0 .553.447 1 1 1h3.001v2c0 .553.447 1 1 1h29.999c.553 0 1-.447 1-1v-21.998c0-.553-.447-1-1-1h-3.001v-3.001c0-.553-.447-1-1-1h-12.999-.001-3.999c-.553 0-1 .447-1 1v3.001h-7.999c-.001 0-.001 0-.002 0zm25 0h-11v-2.001h11zm-14.999-2.001h1.999v2.001h-1.999zm-8.999 4.001h23.998v.998h-9.998v.001c-4.625 0-8.442 3.507-8.941 8h-.06v1.999h.06c.499 4.494 4.316 8.002 8.941 8.002 4.962 0 8.999-4.038 8.999-9.001 0-2.827-1.312-5.35-3.357-7.001h5.356c.553 0 1-.447 1-1v-1.998h2.001v19.998h-27.999zm13.999 12.999c-1.654 0-3-1.346-3-2.999 0-1.654 1.346-3 3-3 1.653 0 2.999 1.346 2.999 3 0 1.653-1.346 2.999-2.999 2.999zm-1-7.898c-1.956.398-3.5 1.942-3.899 3.898h-2.02c.44-3.059 2.861-5.479 5.92-5.92zm-3.899 5.897c.398 1.957 1.942 3.501 3.899 3.9v2.022c-3.06-.441-5.48-2.863-5.92-5.922zm5.899 5.922-.001-2.022c1.957-.399 3.501-1.943 3.899-3.9h2.022c-.44 3.059-2.86 5.481-5.92 5.922zm3.898-7.921c-.399-1.956-1.943-3.5-3.898-3.898l.001-2.022c3.059.44 5.479 2.861 5.92 5.92zm-22.898-7v-1.999h2.001v1.999zm0 14.999v-1.999h2.001v1.999z"/><path d="m24.499 39.999c-.827 0-1.5.673-1.5 1.5 0 .826.673 1.499 1.5 1.499.826 0 1.499-.673 1.499-1.499 0-.827-.673-1.5-1.499-1.5z"/><path d="m24.499 31.999c.826 0 1.499-.673 1.499-1.499 0-.827-.673-1.5-1.499-1.5-.827 0-1.5.673-1.5 1.5 0 .826.673 1.499 1.5 1.499z"/><path d="m24.499 27.999c.826 0 1.499-.673 1.499-1.499 0-.827-.673-1.5-1.499-1.5-.827 0-1.5.673-1.5 1.5 0 .826.673 1.499 1.5 1.499z"/><path d="m20.5 25c-.827 0-1.5.673-1.5 1.5 0 .826.673 1.499 1.5 1.499.826 0 1.499-.673 1.499-1.499 0-.827-.673-1.5-1.499-1.5z"/><path d="m13.5 18c-.827 0-1.5.673-1.5 1.5 0 .826.673 1.499 1.5 1.499.826 0 1.499-.673 1.499-1.499 0-.827-.673-1.5-1.499-1.5z"/><path d="m32.5 16.999c.826 0 1.499-.673 1.499-1.499 0-.827-.673-1.5-1.499-1.5-.827 0-1.5.673-1.5 1.5 0 .826.673 1.499 1.5 1.499z"/><path d="m20.5 29c-.827 0-1.5.673-1.5 1.5 0 .826.673 1.499 1.5 1.499.826 0 1.499-.673 1.499-1.499 0-.827-.673-1.5-1.499-1.5z"/><path d="m21.998 22.998v-3.999c0-.553-.447-1-1-1h-3.999c-.553 0-1 .447-1 1v3.999c0 .553.447 1 1 1h3.999c.553 0 1-.447 1-1zm-2-1h-1.999v-1.999h1.999z"/><path d="m28.999 43.999h17.999v1.999h-17.999z"/><path d="m11.999 13.999h15.999v1.999h-15.999z"/><path d="m58.499 16.998c.826 0 1.499-.673 1.499-1.499 0-.827-.673-1.5-1.499-1.5-.827 0-1.5.673-1.5 1.5 0 .826.673 1.499 1.5 1.499z"/></g></g></svg>