<svg height="512" viewBox="0 0 60 60" width="512" xmlns="http://www.w3.org/2000/svg"><g id="Page-1" fill="none" fill-rule="evenodd"><g id="045---Meat-Diet" fill-rule="nonzero" transform="translate(-1)"><path id="Shape" d="m60 41c0 4.52-4.43 8.5-11.16 10.83-1.68-1.94-2.84-6.06-2.84-10.83s1.16-8.89 2.84-10.83c6.73 2.33 11.16 6.31 11.16 10.83z" fill="#02a9f4"/><path id="Shape" d="m48.84 30.17c-.24338.2883948-.4624618.5964473-.655.921 5.394 2.385 8.815 5.938 8.815 9.909s-3.421 7.524-8.815 9.909c.1921957.3247754.4112972.6328556.655.921 6.73-2.33 11.16-6.31 11.16-10.83s-4.43-8.5-11.16-10.83z" fill="#0377bc"/><path id="Shape" d="m46 41c0 4.77 1.16 8.89 2.84 10.83-3.4853736 1.1660039-7.1106422 1.8621362-10.78 2.07-1 .07-2.02.1-3.06.1-2.3431213.0038087-4.6831599-.1700227-7-.52-7.21-1.09-13.07-3.82-15.99-7.36-2.67999758-2.8872796-2.67999758-7.3527204 0-10.24 2.92-3.54 8.78-6.27 15.99-7.36 2.3168401-.3499773 4.6568787-.5238087 7-.52 1.05 0 2.08.03 3.09.1 3.6595837.2077362 7.274956.9039056 10.75 2.07-1.68 1.94-2.84 6.06-2.84 10.83z" fill="#3f51b5"/><path id="Shape" d="m10 41c.0471306 1.889918.7588156 3.7027672 2.01 5.12-.5911657 1.250776-1.3928261 2.3906897-2.37 3.37-1.15447563 1.1607658-2.53683895 2.069857-4.06 2.67-.67076028.2634635-1.43151604.1441029-1.98935857-.3121252s-.82577664-1.1781752-.70064143-1.8878748c.18019977-.9762078.26725748-1.9673264.26-2.96.06653616-1.727131-.2475476-3.4477637-.92-5.04-.30969881-.6025338-.30969881-1.3174662 0-1.92.6724524-1.5922363.98653616-3.312869.92-5.04.00725748-.9926736-.07980023-1.9837922-.26-2.96-.12513521-.7096996.1427989-1.4316467.70064143-1.8878748s1.31859829-.5755887 1.98935857-.3121252c1.52316105.600143 2.90552437 1.5092342 4.06 2.67.9771739.9793103 1.7788343 2.119224 2.37 3.37-1.2511844 1.4172328-1.9628694 3.230082-2.01 5.12z" fill="#02a9f4"/><path id="Shape" d="m38.06 53.9c-.6085096.756371-1.2809914 1.4589638-2.01 2.1-1.614229 1.4598618-3.577303 2.4792827-5.7 2.96-.591399.1053183-1.198817-.060761-1.6543573-.4523318-.4555403-.3915709-.7109543-.9671599-.6956427-1.5676682v-3.46c2.3168401.3499773 4.6568787.5238087 7 .52 1.04 0 2.06-.03 3.06-.1z" fill="#02a9f4"/><path id="Shape" d="m35 54h-.027c-.5849336.7183932-1.2281132 1.3873267-1.923 2-1.2539413 1.1179913-2.7100863 1.985908-4.29 2.557.4399721.3713645 1.0266751.5189628 1.59.4 2.1223969-.4798501 4.0854428-1.4982232 5.7-2.957.7290086-.6410362 1.4014904-1.343629 2.01-2.1-1 .07-2.02.1-3.06.1z" fill="#0377bc"/><path id="Shape" d="m38.09 28.1c-1.01-.07-2.04-.1-3.09-.1-2.3431213-.0038087-4.6831599.1700227-7 .52v-3.46c-.0153116-.6005083.2401024-1.1760973.6956427-1.5676682.4555403-.3915708 1.0629583-.5576501 1.6543573-.4523318 3.0776505.7636009 5.8058947 2.5471818 7.74 5.06z" fill="#02a9f4"/><path id="Shape" d="m35 28c1.048 0 2.077.03 3.086.1-1.9341053-2.5128182-4.6623495-4.2963991-7.74-5.06-.5626902-.1184676-1.1485737.0291101-1.588.4 2.4514664.9336149 4.607214 2.5084641 6.242 4.56z" fill="#0377bc"/><path id="Shape" d="m46 12c0 2.21-.67 4-1.5 4v.01c-6.3163153.1978414-12.5553366 1.4483494-18.46 3.7-2.6707074 1.1497053-5.4382459 2.0599477-8.27 2.72-4.56.78-9.49 1.36-12.89-2.49-1.85583275-2.2282071-2.86517826-5.0402083-2.85-7.94-.01517826-2.8997917.99416725-5.71179286 2.85-7.94 3.4-3.85 8.33-3.27 12.89-2.49 2.8317541.66005231 5.5992926 1.57029472 8.27 2.72 5.9046634 2.25165058 12.1436847 3.50215864 18.46 3.7v.01c.83 0 1.5 1.79 1.5 4z" fill="#a0522d"/><path id="Shape" d="m60 15.5v.5h-.04" fill="#ffe0b2"/><path id="Shape" d="m59.96 8h.04v.5" fill="#ffe0b2"/><path id="Shape" d="m59.24 13.32c.4900338.621207.7576288 1.3887822.76 2.18.0019991.1675397-.0113905.334909-.04.5-.2064967 1.4129786-1.2506829 2.5588174-2.6384579 2.8953144-1.3877749.3364969-2.8408107-.2038348-3.6715421-1.3653144-.7561572-.9924103-1.9427398-1.5615235-3.19-1.53h-5.47c-.16 0-.33 0-.49.01v-.01c.83 0 1.5-1.79 1.5-4s-.67-4-1.5-4v-.01c.16.01.33.01.49.01h5.47c1.2472602.03152354 2.4338428-.53758974 3.19-1.53.8307314-1.16147956 2.2837672-1.70181129 3.6715421-1.36531436 1.387775.33649693 2.4319612 1.48233576 2.6384579 2.89531436.0286095.16509099.0419991.33246032.04.5-.0023712.79121782-.2699662 1.558793-.76 2.18-.6300233.767236-.6300233 1.872764 0 2.64z" fill="#ffe0b2"/><path id="Shape" d="m59.24 10.68c.4900338-.621207.7576288-1.38878218.76-2.18.0019991-.16753968-.0113905-.33490901-.04-.5-.2483263-1.72046335-1.7217089-2.99796274-3.46-3-.5202599.00368981-1.0329857.12469309-1.5.354 1.0533443.50039761 1.7882736 1.4925521 1.96 2.646.0286095.16509099.0419991.33246032.04.5-.0023712.79121782-.2699662 1.558793-.76 2.18-.6300233.767236-.6300233 1.872764 0 2.64.4900338.621207.7576288 1.3887822.76 2.18.0019991.1675397-.0113905.334909-.04.5-.1717264 1.1534479-.9066557 2.1456024-1.96 2.646.4670143.2293069.9797401.3503102 1.5.354 1.7382911-.0020373 3.2116737-1.2795367 3.46-3 .0286095-.165091.0419991-.3324603.04-.5-.0023712-.7912178-.2699662-1.558793-.76-2.18-.6300233-.767236-.6300233-1.872764 0-2.64z" fill="#dfc49c"/><path id="Shape" d="m6.031 13h-.031c-.5519857-.0157913-.98668776-.4760114-.971-1.028-.01109891-2.16076433.73152295-4.25778702 2.1-5.93.70922758-.81197628 1.63606918-1.40396122 2.671-1.706.3456337-.11573505.7268626-.0342438.9949735.21268493.268111.24692872.3806319.62017841.2936697.97414852-.0869622.3539701-.3596317.63258746-.7116432.72716655-.67978653.19548953-1.2883389.58382375-1.752 1.118-1.05428379 1.32229735-1.61791056 2.9690063-1.595 4.66-.01515194.540932-.45785598.971671-.999.972z" fill="#f5f5f5"/><circle id="Oval" cx="14" cy="5" fill="#f5f5f5" r="1"/><g fill="#000"><path id="Shape" d="m38.571 27.128c-2.0455223-2.5190614-4.8601002-4.2985012-8.013-5.066-.8532891-.1797006-1.7420483.0368816-2.417.589-.7257534.5885926-1.1453931 1.4745804-1.141 2.409v2.592c-6.393 1.077-11.646 3.422-14.794 6.515-.5271125-.8548858-1.1494173-1.647276-1.855-2.362-1.24916616-1.2619739-2.74771539-2.2496541-4.4-2.9-1.01663371-.399989-2.17045782-.2140739-3.01.485-.84496372.6813818-1.24240581 1.7751177-1.032 2.84.16679936.9137625.24748638 1.841161.241 2.77.05984738 1.5693376-.21667158 3.1333233-.811 4.587-.45943876.8898637-.45943876 1.9471363 0 2.837.59313892 1.4501693.86964224 3.0103162.811 4.576.00638204.9295421-.07464113 1.8576257-.242 2.772-.20588932 1.0603851.18980795 2.1478796 1.029 2.828.53970421.4468546 1.21831501.6915647 1.919.692.37387402.000301.74441598-.0702785 1.092-.208 1.65244765-.6500318 3.15105819-1.6377524 4.4-2.9.7055334-.7137812 1.3275361-1.505543 1.854-2.36 3.149 3.093 8.4 5.438 14.8 6.515v2.601c-.0043931.9344196.4152466 1.8204074 1.141 2.409.5143701.4187435 1.156738.6485135 1.82.651.1999886-.0001757.3994091-.0212908.595-.063 2.2911665-.5113348 4.4103079-1.6088088 6.15-3.185.6546627-.5812963 1.2656469-1.2099951 1.828-1.881 12.847-.902 22.464-6.671 22.464-13.871s-9.6-12.961-22.429-13.872zm-9.571-2.068c-.0019406-.330632.1449449-.6445999.4-.855.2072379-.1718472.481308-.2402727.745-.186 2.0779229.4826582 3.9878974 1.5150116 5.53 2.989-.225 0-.448-.009-.674-.009-2.0055468-.0009775-4.0092798.1205823-6 .364zm-20.07 23.724c-1.05591463 1.0645705-2.32219231 1.8972894-3.718 2.445-.33840984.1335962-.72290495.06977-1-.166-.27375331-.217822-.40459731-.5691766-.34-.913.19269411-1.0387612.28578304-2.0935459.278-3.15.07186093-1.8847955-.27940606-3.7617504-1.028-5.493-.16481941-.3124439-.16705836-.6856008-.006-1 .7527783-1.735053 1.10614557-3.6170584 1.034-5.507.00787326-1.0554187-.08487959-2.1091848-.277-3.147-.06664947-.3451628.06444026-.6987195.34-.917.27621002-.237669.66181418-.3016793 1-.166 1.3952692.5467915 2.66120619 1.3784886 3.717 2.442.74887611.7563143 1.3859673 1.6156466 1.892 2.552-.3007353.4113145-.5714365.843768-.81 1.294-.87984142-.4487238-1.80869782-.7940248-2.768-1.029-.53571619-.1347574-1.07924247.1902838-1.21399994.726-.13475748.5357162.19028376 1.0792425.72599994 1.214.87702838.2089044 1.72361312.5295244 2.519.954-.36665153 1.3593773-.36665153 2.7916227 0 4.151-.79533776.4248215-1.64192432.7457783-2.519.955-.49198353.1211091-.8156432.5910372-.75339505 1.0938696.06224814.5028323.49073059.8796489.99739505.8771304.08257217-.0001721.16482587-.010244.245-.03.95939507-.2351309 1.8882715-.5807749 2.768-1.03.2382062.4523517.5089168.8868255.81 1.3-.5068545.9336778-1.14427145 1.7903015-1.893 2.544zm2.07-7.784c0-6.505 10.991-12 24-12 4.1435833-.0207014 8.2679109.5648305 12.242 1.738-1.5894321 3.1808764-2.3600416 6.7080817-2.242 10.262-.11783 3.553899.6527683 7.0810529 2.242 10.262-3.9740891 1.1731695-8.0984167 1.7587014-12.242 1.738-13.009 0-24-5.5-24-12zm24.39 14.25c-1.4833337 1.3496195-3.2916597 2.2909965-5.248 2.732-.2621546.056218-.5356132-.0108567-.742-.182-.2550551-.2104001-.4019406-.524368-.4-.855l-.000019-2.3c1.9909234.2404095 3.9946558.3589637 6.000019.355.222 0 .44-.006.66-.009-.091.083-.178.177-.27.258zm13.794-4.65c-1.337-2-2.184-5.639-2.184-9.6s.847-7.6 2.184-9.605c5.91 2.205 9.816 5.727 9.816 9.605s-3.906 7.394-9.816 9.6z"/><path id="Shape" d="m54.707 36.292c-.3904999-.3903819-1.0235001-.3903819-1.414 0l-1.293 1.293-1.293-1.293c-.3923789-.3789722-1.0160848-.3735524-1.4018186.0121814s-.3911536 1.0094397-.0121814 1.4018186l1.293 1.294-1.293 1.293c-.2599566.2510745-.3642126.6228779-.2726972.9725073.0915155.3496295.3645604.6226744.7141899.7141899.3496294.0915154.7214328-.0127406.9725073-.2726972l1.293-1.294 1.293 1.293c.3923789.3789722 1.0160848.3735524 1.4018186-.0121814s.3911536-1.0094397.0121814-1.4018186l-1.293-1.292 1.293-1.293c.187777-.1875683.2932867-.4420908.2932867-.7075s-.1055097-.5199317-.2932867-.7075z"/><path id="Shape" d="m40 39c.5522847 0 1-.4477153 1-1s-.4477153-1-1-1c-1.1045695 0-2-.8954305-2-2s.8954305-2 2-2c.5522847 0 1-.4477153 1-1s-.4477153-1-1-1c-2.209139 0-4 1.790861-4 4s1.790861 4 4 4z"/><path id="Shape" d="m34 43c-1.1045695 0-2-.8954305-2-2s.8954305-2 2-2c.5522847 0 1-.4477153 1-1s-.4477153-1-1-1c-2.209139 0-4 1.790861-4 4s1.790861 4 4 4c.5522847 0 1-.4477153 1-1s-.4477153-1-1-1z"/><path id="Shape" d="m22 39c.5522847 0 1-.4477153 1-1s-.4477153-1-1-1c-2.209139 0-4 1.790861-4 4s1.790861 4 4 4c.5522847 0 1-.4477153 1-1s-.4477153-1-1-1c-1.1045695 0-2-.8954305-2-2s.8954305-2 2-2z"/><path id="Shape" d="m40 51c.5522847 0 1-.4477153 1-1s-.4477153-1-1-1c-1.1045695 0-2-.8954305-2-2s.8954305-2 2-2c.5522847 0 1-.4477153 1-1s-.4477153-1-1-1c-2.209139 0-4 1.790861-4 4s1.790861 4 4 4z"/><path id="Shape" d="m28 33c.5522847 0 1-.4477153 1-1s-.4477153-1-1-1c-2.209139 0-4 1.790861-4 4s1.790861 4 4 4c.5522847 0 1-.4477153 1-1s-.4477153-1-1-1c-1.1045695 0-2-.8954305-2-2s.8954305-2 2-2z"/><path id="Shape" d="m28 45c.5522847 0 1-.4477153 1-1s-.4477153-1-1-1c-2.209139 0-4 1.790861-4 4s1.790861 4 4 4c.5522847 0 1-.4477153 1-1s-.4477153-1-1-1c-1.1045695 0-2-.8954305-2-2s.8954305-2 2-2z"/><path id="Shape" d="m61 8.5c.0025925-.21473384-.0141416-.42926545-.05-.641-.2595049-1.81993505-1.6015178-3.29819208-3.3879637-3.73191735-1.7864458-.43372526-3.6569008.26458736-4.7220363 1.76291735-.570027.73005599-1.4553447 1.14278285-2.381 1.11h-5.469c-6.3681176-.12125935-12.6657128-1.3576282-18.607-3.653-.67-.243-1.333-.5-1.995-.755-2.0782474-.87971979-4.2384359-1.55165934-6.449-2.006-4.977-.855-10.139-1.339-13.807 2.807-2.0223319 2.41822495-3.12085652 5.47566701-3.1 8.628-.01346871 3.1377529 1.0847936 6.1788767 3.1 8.584 2.11154307 2.3270819 5.16311634 3.5730797 8.3 3.389 1.8486538-.0390303 3.6907771-.2330437 5.507-.58 2.2094808-.4547722 4.368632-1.1267016 6.446-2.006.662-.256 1.325-.512 1.995-.755 5.9422309-2.2957155 12.2408715-3.5320903 18.61-3.653h5.469c.9254083-.0329528 1.8104969.3798407 2.38 1.11 1.0609918 1.4891616 2.9185965 2.1868187 4.6975703 1.7642575s3.1244288-1.8810438 3.4024297-3.6882575c.0416981-.2262618.0621205-.4559307.061-.686-.0026958-1.0172845-.3487072-2.0038749-.982-2.8-.337372-.4019197-.337372-.9880803 0-1.39.635072-.7990034.9811654-1.78935206.982-2.81zm-35.3 10.272c-.684.249-1.36.509-2.036.77-1.9544572.8316566-3.9863356 1.468084-6.066 1.9-4.6.788-8.984 1.217-11.974-2.164-1.69334195-2.0382325-2.61395851-4.6081691-2.6-7.258-.02085774-2.66372618.89999073-5.24918536 2.6-7.3 1.74636361-1.89247895 4.25566181-2.8925216 6.825-2.72 1.7287617.04102472 3.4510789.22633522 5.149.554 2.0807534.43146518 4.1136709 1.06790336 6.069 1.9.676.261 1.352.521 2.036.77 5.9565342 2.28393858 12.2537982 3.55319388 18.63 3.755h.016c.5012617.92408787.7271809 1.9724781.651 3.021.0744407 1.0455212-.1514258 2.0905438-.651 3.012h-.016c-6.3774999.2030714-12.6758146 1.4740242-18.633 3.76zm32.751-4.829c.356312.4405878.5501643.9903656.549 1.557.0013929.1203467-.0086522.2405536-.03.359-.1451075 1.0092714-.8902037 1.8284435-1.8812463 2.0682758-.9910425.2398323-2.0282398-.1480248-2.6187537-.9792758-.9457004-1.2568631-2.4384514-1.9818391-4.011-1.948h-3.9c.304717-.9703878.4535668-1.9829715.441-3 .0135372-1.0168684-.1342995-2.02944834-.438-3h3.9c1.5717405.03269433 3.0633917-.69210902 4.009-1.948.5950378-.83992063 1.6449567-1.22799096 2.6432217-.97698595.9982651.25100501 1.7397714 1.08951351 1.8667783 2.11098595.0154847.10391162.0218423.20897942.019.314.0018906.56607987-.1904849 1.11567357-.545 1.557-.9129281 1.1343474-.9133442 2.7511829-.001 3.886z"/></g></g></g></svg>