<svg height="512" viewBox="0 0 64 64" width="512" xmlns="http://www.w3.org/2000/svg"><g id="Filled_Outline" data-name="Filled Outline"><path d="m32 39c28.2-20.571 16.664-32.143 16.664-32.143a9.609 9.609 0 0 0 -7.691-3.857c-5.127 0-8.973 3.857-8.973 3.857s-3.846-3.857-8.973-3.857a9.609 9.609 0 0 0 -7.691 3.857s-11.536 11.572 16.664 32.143z" fill="#c2185b"/><path d="m60.669 39.174a3.731 3.731 0 0 0 -4.819-1.285l-7.244 3.7a1.945 1.945 0 0 0 -.169-.377 4.531 4.531 0 0 0 -5.992-1.765l-8.071 4.142a3.938 3.938 0 0 1 -3.646-.024l-5.5-2.921a11.813 11.813 0 0 0 -12.315.756l-2.013 1.413 2.945 13.8 4.448-.958a7.8 7.8 0 0 1 2.669-.106l12.491 1.37a9.71 9.71 0 0 0 6.7-1.566l19.973-13.4a2.019 2.019 0 0 0 .543-2.779z" fill="#fadcb4"/><path d="m13.745 43.536a12.963 12.963 0 0 1 12.355-1.624l-.021-.018c-3.833-3.256-8.843-3.328-13-.186l-2.3 1.739.353 1.873z" fill="#f7ecdf"/><path d="m15.273 59.33-7.759 1.67-4.514-21.513 7.758-1.67z" fill="#455a64"/><path d="m61.517 38.645-.014-.024a4.738 4.738 0 0 0 -6.11-1.621l-6.408 3.277a5.516 5.516 0 0 0 -7-1.713l-8.07 4.136a2.933 2.933 0 0 1 -2.719-.017l-5.5-2.92a12.769 12.769 0 0 0 -13.342.808l-.621-2.962a1 1 0 0 0 -1.189-.772l-7.755 1.673a1 1 0 0 0 -.768 1.182l4.515 21.513a1 1 0 0 0 .978.8 1.062 1.062 0 0 0 .21-.022l7.759-1.67a1 1 0 0 0 .768-1.183l-.4-1.925 2.651-.571a6.858 6.858 0 0 1 2.351-.09l12.468 1.367a10.7 10.7 0 0 0 7.379-1.732l19.973-13.4a3.017 3.017 0 0 0 .844-4.134zm-53.231 21.166-4.1-19.555 5.8-1.25 4.1 19.556zm51.274-18.69-19.973 13.4a8.723 8.723 0 0 1 -6.029 1.4l-12.468-1.367a8.714 8.714 0 0 0 -3.012.12l-2.642.568-2.636-12.542.683-.476a10.775 10.775 0 0 1 11.274-.694l5.5 2.92a4.933 4.933 0 0 0 4.571.031l8.072-4.141a3.537 3.537 0 0 1 4.671 1.378 1.011 1.011 0 0 1 -.354 1.374l-11.128 6.6a8.817 8.817 0 0 1 -6.472 1.025l-10.036-2.4-.464 1.946 10.045 2.4a10.807 10.807 0 0 0 7.947-1.251l11.128-6.6a3 3 0 0 0 1.455-2.653l6.608-3.381a2.735 2.735 0 0 1 3.519.929l.011.017a1.027 1.027 0 0 1 -.27 1.397z"/><path d="m6.7 41.565h2v1.998h-2z" transform="matrix(.979 -.206 .206 .979 -8.585 2.492)"/><path d="m31.411 39.808a1 1 0 0 0 1.178 0c10.034-7.319 16.211-14.298 18.455-20.808h5.14a3 3 0 1 0 0-2h-4.584a16.237 16.237 0 0 0 .355-2.239 11.364 11.364 0 0 0 -2.514-8.535 10.573 10.573 0 0 0 -8.468-4.226 14.676 14.676 0 0 0 -8.973 3.518 14.676 14.676 0 0 0 -8.973-3.518 10.578 10.578 0 0 0 -8.47 4.226 11.37 11.37 0 0 0 -2.513 8.535c.603 7.685 7.119 16.113 19.367 25.047zm27.589-22.808a1 1 0 1 1 -1 1 1 1 0 0 1 1-1zm-42.956-9.437a.963.963 0 0 0 .125-.152 8.6 8.6 0 0 1 6.858-3.411c4.634 0 8.23 3.529 8.266 3.564a1 1 0 0 0 1.415 0c.036-.037 3.606-3.564 8.265-3.564a8.535 8.535 0 0 1 6.858 3.411.963.963 0 0 0 .125.152 9.3 9.3 0 0 1 2.006 7.037 13.96 13.96 0 0 1 -.41 2.4h-7.972l-3.712-6.5a1 1 0 0 0 -1.8.125l-4.945 12.375-3.168-10.294a1 1 0 0 0 -1.813-.221l-2.709 4.515h-6.433v2h7a1 1 0 0 0 .857-.485l1.843-3.077 3.341 10.856a1 1 0 0 0 .915.7h.044a1 1 0 0 0 .929-.629l5.23-13.077 2.973 5.2a1 1 0 0 0 .868.512h7.9c-1.851 4.712-6.455 11.032-16.9 18.759-14.091-10.424-17.551-18.291-17.956-23.079a9.3 9.3 0 0 1 2-7.117z"/><path d="m2 17h8v2h-8z"/></g></svg>